<svg width="816" height="363" xmlns="http://www.w3.org/2000/svg" xmlns:xlink="http://www.w3.org/1999/xlink" xml:space="preserve" overflow="hidden"><defs><clipPath id="clip0"><rect x="232" y="178" width="816" height="363"/></clipPath><clipPath id="clip1"><rect x="232" y="179" width="816" height="362"/></clipPath><clipPath id="clip2"><rect x="232" y="179" width="816" height="362"/></clipPath><clipPath id="clip3"><rect x="232" y="179" width="816" height="362"/></clipPath><clipPath id="clip4"><rect x="232" y="179" width="817" height="362"/></clipPath></defs><g clip-path="url(#clip0)" transform="translate(-232 -178)"><g clip-path="url(#clip1)"><g clip-path="url(#clip2)"><g clip-path="url(#clip3)"><g clip-path="url(#clip4)"><path d="M71.8098 214.938 425.94 214.938 425.94 334.457 71.8098 334.457Z" stroke="#AE5A21" stroke-width="0.983696" stroke-linecap="butt" stroke-linejoin="miter" stroke-miterlimit="8" stroke-opacity="1" fill="#ED7D31" fill-rule="nonzero" fill-opacity="1" transform="matrix(1.00063 0 0 1 171.957 111.125)"/><text fill="#FFFFFF" fill-opacity="1" font-family="Calibri,Calibri_MSFontService,sans-serif" font-style="normal" font-variant="normal" font-weight="400" font-stretch="normal" font-size="36" text-anchor="start" direction="ltr" writing-mode="lr-tb" unicode-bidi="normal" text-decoration="none" transform="matrix(0.492159 0 0 0.491848 416.577 381)">+</text><text fill="#FFFFFF" fill-opacity="1" font-family="Calibri,Calibri_MSFontService,sans-serif" font-style="normal" font-variant="normal" font-weight="400" font-stretch="normal" font-size="36" text-anchor="start" direction="ltr" writing-mode="lr-tb" unicode-bidi="normal" text-decoration="none" transform="matrix(0.492159 0 0 0.491848 310.271 424)">+</text><text fill="#FFFFFF" fill-opacity="1" font-family="Calibri,Calibri_MSFontService,sans-serif" font-style="normal" font-variant="normal" font-weight="400" font-stretch="normal" font-size="36" text-anchor="start" direction="ltr" writing-mode="lr-tb" unicode-bidi="normal" text-decoration="none" transform="matrix(0.492159 0 0 0.491848 381.142 424)">p</text><text fill="#FFFFFF" fill-opacity="1" font-family="Calibri,Calibri_MSFontService,sans-serif" font-style="normal" font-variant="normal" font-weight="400" font-stretch="normal" font-size="36" text-anchor="start" direction="ltr" writing-mode="lr-tb" unicode-bidi="normal" text-decoration="none" transform="matrix(0.492159 0 0 0.491848 390.493 424)">-</text><text fill="#FFFFFF" fill-opacity="1" font-family="Calibri,Calibri_MSFontService,sans-serif" font-style="normal" font-variant="normal" font-weight="400" font-stretch="normal" font-size="36" text-anchor="start" direction="ltr" writing-mode="lr-tb" unicode-bidi="normal" text-decoration="none" transform="matrix(0.492159 0 0 0.491848 395.907 424)">substrate </text><text fill="#FFFFFF" fill-opacity="1" font-family="Calibri,Calibri_MSFontService,sans-serif" font-style="normal" font-variant="normal" font-weight="400" font-stretch="normal" font-size="36" text-anchor="start" direction="ltr" writing-mode="lr-tb" unicode-bidi="normal" text-decoration="none" transform="matrix(0.492159 0 0 0.491848 522.884 424)">+</text><path d="M123.454 214.938 182.476 214.938 182.476 266.582 123.454 266.582Z" stroke="#2F528F" stroke-width="0.983696" stroke-linecap="butt" stroke-linejoin="miter" stroke-miterlimit="8" stroke-opacity="1" fill="#4472C4" fill-rule="nonzero" fill-opacity="1" transform="matrix(1.00063 0 0 1 171.957 111.125)"/><text fill="#FFFFFF" fill-opacity="1" font-family="Calibri,Calibri_MSFontService,sans-serif" font-style="normal" font-variant="normal" font-weight="400" font-stretch="normal" font-size="36" text-anchor="start" direction="ltr" writing-mode="lr-tb" unicode-bidi="normal" text-decoration="none" transform="matrix(0.492159 0 0 0.491848 315.72 358)">n+</text><path d="M308.88 214.938 367.902 214.938 367.902 266.582 308.88 266.582Z" stroke="#2F528F" stroke-width="0.983696" stroke-linecap="butt" stroke-linejoin="miter" stroke-miterlimit="8" stroke-opacity="1" fill="#4472C4" fill-rule="nonzero" fill-opacity="1" transform="matrix(1.00063 0 0 1 171.957 111.125)"/><text fill="#FFFFFF" fill-opacity="1" font-family="Calibri,Calibri_MSFontService,sans-serif" font-style="normal" font-variant="normal" font-weight="400" font-stretch="normal" font-size="36" text-anchor="start" direction="ltr" writing-mode="lr-tb" unicode-bidi="normal" text-decoration="none" transform="matrix(0.492159 0 0 0.491848 501.335 358)">n+</text><path d="M182.476 191.329 308.88 191.329 308.88 214.938 182.476 214.938Z" stroke="#787878" stroke-width="0.983696" stroke-linecap="butt" stroke-linejoin="miter" stroke-miterlimit="8" stroke-opacity="1" fill="#A5A5A5" fill-rule="nonzero" fill-opacity="1" transform="matrix(1.00063 0 0 1 171.957 111.125)"/><text fill="#FFFFFF" fill-opacity="1" font-family="Calibri,Calibri_MSFontService,sans-serif" font-style="normal" font-variant="normal" font-weight="400" font-stretch="normal" font-size="36" text-anchor="start" direction="ltr" writing-mode="lr-tb" unicode-bidi="normal" text-decoration="none" transform="matrix(0.492159 0 0 0.491848 390.059 320)">Si oxide</text><path d="M182.476 167.72 308.88 167.72 308.88 191.329 182.476 191.329Z" stroke="#507E32" stroke-width="0.983696" stroke-linecap="butt" stroke-linejoin="miter" stroke-miterlimit="8" stroke-opacity="1" fill="#70AD47" fill-rule="nonzero" fill-opacity="1" transform="matrix(1.00063 0 0 1 171.957 111.125)"/><text fill="#FFFFFF" fill-opacity="1" font-family="Calibri,Calibri_MSFontService,sans-serif" font-style="normal" font-variant="normal" font-weight="400" font-stretch="normal" font-size="36" text-anchor="start" direction="ltr" writing-mode="lr-tb" unicode-bidi="normal" text-decoration="none" transform="matrix(0.492159 0 0 0.491848 394.132 297)">poly Si</text><path d="M0 0 7.74562e-05 98.6504" stroke="#000000" stroke-width="1.47554" stroke-linecap="butt" stroke-linejoin="miter" stroke-miterlimit="8" stroke-opacity="1" fill="none" fill-rule="evenodd" transform="matrix(1.00063 0 0 -1 325.264 326.097)"/><path d="M0 0 7.74562e-05 98.6504" stroke="#000000" stroke-width="1.47554" stroke-linecap="butt" stroke-linejoin="miter" stroke-miterlimit="8" stroke-opacity="1" fill="none" fill-rule="evenodd" transform="matrix(1.00063 0 0 -1 511.3 326.097)"/><path d="M0 0 7.74562e-05 98.6504" stroke="#000000" stroke-width="1.47554" stroke-linecap="butt" stroke-linejoin="miter" stroke-miterlimit="8" stroke-opacity="1" fill="none" fill-rule="evenodd" transform="matrix(1.00063 0 0 -1 417.79 278.88)"/><path d="M84.8438 116.322 153.14 116.322" stroke="#000000" stroke-width="1.47554" stroke-linecap="butt" stroke-linejoin="miter" stroke-miterlimit="8" stroke-opacity="1" fill="none" fill-rule="evenodd" transform="matrix(1.00063 0 0 1 171.957 111.125)"/><path d="M177.311 69.1046 245.608 69.1046" stroke="#000000" stroke-width="1.47554" stroke-linecap="butt" stroke-linejoin="miter" stroke-miterlimit="8" stroke-opacity="1" fill="none" fill-rule="evenodd" transform="matrix(1.00063 0 0 1 171.957 111.125)"/><path d="M338.637 115.83 406.934 115.83" stroke="#000000" stroke-width="1.47554" stroke-linecap="butt" stroke-linejoin="miter" stroke-miterlimit="8" stroke-opacity="1" fill="none" fill-rule="evenodd" transform="matrix(1.00063 0 0 1 171.957 111.125)"/><path d="M84.8438 115.83 84.8438 155.459" stroke="#000000" stroke-width="1.47554" stroke-linecap="butt" stroke-linejoin="miter" stroke-miterlimit="8" stroke-opacity="1" fill="none" fill-rule="evenodd" transform="matrix(1.00063 0 0 1 171.957 111.125)"/><path d="M177.311 69.1046 177.311 108.733" stroke="#000000" stroke-width="1.47554" stroke-linecap="butt" stroke-linejoin="miter" stroke-miterlimit="8" stroke-opacity="1" fill="none" fill-rule="evenodd" transform="matrix(1.00063 0 0 1 171.957 111.125)"/><path d="M96.4022 154.44 84.5978 167.72 72.7935 154.44Z" stroke="#000000" stroke-width="0.983696" stroke-linecap="butt" stroke-linejoin="miter" stroke-miterlimit="8" stroke-opacity="1" fill="#000000" fill-rule="evenodd" fill-opacity="1" transform="matrix(1.00063 0 0 1 171.957 111.125)"/><path d="M189.853 108.698 178.049 121.978 166.245 108.698Z" stroke="#000000" stroke-width="0.983696" stroke-linecap="butt" stroke-linejoin="miter" stroke-miterlimit="8" stroke-opacity="1" fill="#000000" fill-rule="evenodd" fill-opacity="1" transform="matrix(1.00063 0 0 1 171.957 111.125)"/><path d="M182.721 240.76 182.721 363.441" stroke="#000000" stroke-width="2.21332" stroke-linecap="butt" stroke-linejoin="round" stroke-miterlimit="10" stroke-dasharray="8.85326 6.63995" stroke-opacity="1" fill="none" fill-rule="evenodd" transform="matrix(1.00063 0 0 1 171.957 111.125)"/><path d="M309.126 240.76 309.126 356.695" stroke="#000000" stroke-width="2.21332" stroke-linecap="butt" stroke-linejoin="round" stroke-miterlimit="10" stroke-dasharray="8.85326 6.63995" stroke-opacity="1" fill="none" fill-rule="evenodd" transform="matrix(1.00063 0 0 1 171.957 111.125)"/><path d="M309.126 363.721C309.126 372.007 308.007 378.723 306.626 378.723L248.424 378.723C247.043 378.723 245.924 385.439 245.924 393.724 245.924 385.439 244.804 378.723 243.424 378.723L185.222 378.723C183.841 378.723 182.721 372.007 182.721 363.721" stroke="#ED7D31" stroke-width="2.21332" stroke-linecap="butt" stroke-linejoin="miter" stroke-miterlimit="8" stroke-opacity="1" fill="none" fill-rule="evenodd" transform="matrix(1.00063 0 0 1 171.957 111.125)"/><text fill="#000000" fill-opacity="1" font-family="Calibri,Calibri_MSFontService,sans-serif" font-style="normal" font-variant="normal" font-weight="400" font-stretch="normal" font-size="36" text-anchor="start" direction="ltr" writing-mode="lr-tb" unicode-bidi="normal" text-decoration="none" transform="matrix(0.492159 0 0 0.491848 390.55 525)">c</text><text fill="#000000" fill-opacity="1" font-family="Calibri,Calibri_MSFontService,sans-serif" font-style="normal" font-variant="normal" font-weight="400" font-stretch="normal" font-size="36" text-anchor="start" direction="ltr" writing-mode="lr-tb" unicode-bidi="normal" text-decoration="none" transform="matrix(0.492159 0 0 0.491848 398.055 525)">hannel</text><text fill="#000000" fill-opacity="1" font-family="Calibri,Calibri_MSFontService,sans-serif" font-style="normal" font-variant="normal" font-weight="400" font-stretch="normal" font-size="36" text-anchor="start" direction="ltr" writing-mode="lr-tb" unicode-bidi="normal" text-decoration="none" transform="matrix(0.492159 0 0 0.491848 243.227 298)">source</text><text fill="#000000" fill-opacity="1" font-family="Calibri,Calibri_MSFontService,sans-serif" font-style="normal" font-variant="normal" font-weight="400" font-stretch="normal" font-size="36" text-anchor="start" direction="ltr" writing-mode="lr-tb" unicode-bidi="normal" text-decoration="none" transform="matrix(0.492159 0 0 0.491848 424.719 266)">gate</text><path d="M475.863 116.322 475.863 155.951" stroke="#000000" stroke-width="1.47554" stroke-linecap="butt" stroke-linejoin="miter" stroke-miterlimit="8" stroke-opacity="1" fill="none" fill-rule="evenodd" transform="matrix(1.00063 0 0 1 171.957 111.125)"/><path d="M487.421 153.948 475.617 167.72 463.812 153.948Z" stroke="#000000" stroke-width="0.983696" stroke-linecap="butt" stroke-linejoin="miter" stroke-miterlimit="8" stroke-opacity="1" fill="#000000" fill-rule="evenodd" fill-opacity="1" transform="matrix(1.00063 0 0 1 171.957 111.125)"/><path d="M408.48 115.83 476.776 115.83" stroke="#000000" stroke-width="1.47554" stroke-linecap="butt" stroke-linejoin="miter" stroke-miterlimit="8" stroke-opacity="1" fill="none" fill-rule="evenodd" transform="matrix(1.00063 0 0 1 171.957 111.125)"/><path d="M386.346 116.076C386.346 106.976 393.283 99.5992 401.84 99.5992 410.396 99.5992 417.333 106.976 417.333 116.076 417.333 125.176 410.396 132.553 401.84 132.553 393.283 132.553 386.346 125.176 386.346 116.076Z" stroke="#000000" stroke-width="2.21332" stroke-linecap="butt" stroke-linejoin="miter" stroke-miterlimit="8" stroke-opacity="1" fill="#FFFFFF" fill-rule="evenodd" fill-opacity="1" transform="matrix(1.00063 0 0 1 171.957 111.125)"/><path d="M356.098 136.488 356.098 176.649 354.622 176.649 354.622 136.488ZM358.311 175.665 355.36 181.567 352.409 175.665Z" fill="#000000" fill-rule="nonzero" fill-opacity="1" transform="matrix(1.00063 0 0 1 171.957 111.125)"/><text fill="#000000" fill-opacity="1" font-family="Cambria Math,Cambria Math_MSFontService,sans-serif" font-style="normal" font-variant="normal" font-weight="400" font-stretch="normal" font-size="36" text-anchor="start" direction="ltr" writing-mode="lr-tb" unicode-bidi="normal" text-decoration="none" transform="matrix(0.492159 0 0 0.491848 596.675 211)">洧녤</text><text fill="#000000" fill-opacity="1" font-family="Cambria Math,Cambria Math_MSFontService,sans-serif" font-style="normal" font-variant="normal" font-weight="400" font-stretch="normal" font-size="26" text-anchor="start" direction="ltr" writing-mode="lr-tb" unicode-bidi="normal" text-decoration="none" transform="matrix(0.492159 0 0 0.491848 605.396 215)">洧냥洧녡</text><text fill="#000000" fill-opacity="1" font-family="Calibri,Calibri_MSFontService,sans-serif" font-style="normal" font-variant="normal" font-weight="400" font-stretch="normal" font-size="36" text-anchor="start" direction="ltr" writing-mode="lr-tb" unicode-bidi="normal" text-decoration="none" transform="matrix(0.492159 0 0 0.491848 621.724 303)">d</text><text fill="#000000" fill-opacity="1" font-family="Calibri,Calibri_MSFontService,sans-serif" font-style="normal" font-variant="normal" font-weight="400" font-stretch="normal" font-size="36" text-anchor="start" direction="ltr" writing-mode="lr-tb" unicode-bidi="normal" text-decoration="none" transform="matrix(0.492159 0 0 0.491848 631.075 303)">rain</text><text fill="#000000" fill-opacity="1" font-family="Cambria Math,Cambria Math_MSFontService,sans-serif" font-style="normal" font-variant="normal" font-weight="400" font-stretch="normal" font-size="36" text-anchor="start" direction="ltr" writing-mode="lr-tb" unicode-bidi="normal" text-decoration="none" transform="matrix(0.492159 0 0 0.491848 532.451 276)">洧냪</text><text fill="#000000" fill-opacity="1" font-family="Cambria Math,Cambria Math_MSFontService,sans-serif" font-style="normal" font-variant="normal" font-weight="400" font-stretch="normal" font-size="26" text-anchor="start" direction="ltr" writing-mode="lr-tb" unicode-bidi="normal" text-decoration="none" transform="matrix(0.492159 0 0 0.491848 538.18 280)">洧냥</text><text fill="#000000" fill-opacity="1" font-family="Cambria Math,Cambria Math_MSFontService,sans-serif" font-style="normal" font-variant="normal" font-weight="400" font-stretch="normal" font-size="36" text-anchor="start" direction="ltr" writing-mode="lr-tb" unicode-bidi="normal" text-decoration="none" transform="matrix(0.492159 0 0 0.491848 553.378 276)">=</text><text fill="#000000" fill-opacity="1" font-family="Cambria Math,Cambria Math_MSFontService,sans-serif" font-style="normal" font-variant="normal" font-weight="400" font-stretch="normal" font-size="36" text-anchor="start" direction="ltr" writing-mode="lr-tb" unicode-bidi="normal" text-decoration="none" transform="matrix(0.492159 0 0 0.491848 571.587 276)">0</text><path d="M602.268 261.417 670.566 261.417" stroke="#000000" stroke-width="1.47554" stroke-linecap="butt" stroke-linejoin="miter" stroke-miterlimit="8" stroke-opacity="1" fill="none" fill-rule="evenodd" transform="matrix(1.00063 0 0 1 171.957 111.125)"/><path d="M602.268 260.925 602.268 300.554" stroke="#000000" stroke-width="1.47554" stroke-linecap="butt" stroke-linejoin="miter" stroke-miterlimit="8" stroke-opacity="1" fill="none" fill-rule="evenodd" transform="matrix(1.00063 0 0 1 171.957 111.125)"/><path d="M613.826 299.043 602.022 312.815 590.217 299.043Z" stroke="#000000" stroke-width="0.983696" stroke-linecap="butt" stroke-linejoin="miter" stroke-miterlimit="8" stroke-opacity="1" fill="#000000" fill-rule="evenodd" fill-opacity="1" transform="matrix(1.00063 0 0 1 171.957 111.125)"/><path d="M669.774 216.167 669.774 258.664 667.56 258.664 667.56 216.167ZM673.497 252.582 668.667 260.86 663.837 252.582C663.532 252.054 663.709 251.376 664.236 251.068 664.762 250.76 665.441 250.938 665.75 251.467L669.621 258.106 667.713 258.106 671.584 251.467C671.894 250.938 672.572 250.76 673.099 251.068 673.625 251.376 673.802 252.054 673.497 252.582Z" fill="#000000" fill-rule="nonzero" fill-opacity="1" transform="matrix(1.00063 0 0 1 171.957 111.125)"/><path d="M655.387 215.183 723.685 215.183" stroke="#000000" stroke-width="1.47554" stroke-linecap="butt" stroke-linejoin="miter" stroke-miterlimit="8" stroke-opacity="1" fill="none" fill-rule="evenodd" transform="matrix(1.00063 0 0 1 171.957 111.125)"/><path d="M705.064 215.183 705.064 259.871" stroke="#000000" stroke-width="2.21332" stroke-linecap="butt" stroke-linejoin="miter" stroke-miterlimit="8" stroke-opacity="1" fill="none" fill-rule="evenodd" transform="matrix(1.00063 0 0 1 171.957 111.125)"/><path d="M687.357 175.344 687.357 210.726" stroke="#000000" stroke-width="1.47554" stroke-linecap="butt" stroke-linejoin="miter" stroke-miterlimit="8" stroke-opacity="1" fill="none" fill-rule="evenodd" transform="matrix(1.00063 0 0 1 171.957 111.125)"/><path d="M643.583 176.327 687.426 176.327" stroke="#000000" stroke-width="1.47554" stroke-linecap="butt" stroke-linejoin="miter" stroke-miterlimit="8" stroke-opacity="1" fill="none" fill-rule="evenodd" transform="matrix(1.00063 0 0 1 171.957 111.125)"/><path d="M643.583 175.344 643.583 193.02" stroke="#000000" stroke-width="1.47554" stroke-linecap="butt" stroke-linejoin="miter" stroke-miterlimit="8" stroke-opacity="1" fill="none" fill-rule="evenodd" transform="matrix(1.00063 0 0 1 171.957 111.125)"/><path d="M655.141 191.329 643.337 204.609 631.533 191.329Z" stroke="#000000" stroke-width="0.983696" stroke-linecap="butt" stroke-linejoin="miter" stroke-miterlimit="8" stroke-opacity="1" fill="#000000" fill-rule="evenodd" fill-opacity="1" transform="matrix(1.00063 0 0 1 171.957 111.125)"/><path d="M705.064 259.942 773.362 259.942" stroke="#000000" stroke-width="1.47554" stroke-linecap="butt" stroke-linejoin="miter" stroke-miterlimit="8" stroke-opacity="1" fill="none" fill-rule="evenodd" transform="matrix(1.00063 0 0 1 171.957 111.125)"/><path d="M861.963 261.417 861.963 301.046" stroke="#000000" stroke-width="1.47554" stroke-linecap="butt" stroke-linejoin="miter" stroke-miterlimit="8" stroke-opacity="1" fill="none" fill-rule="evenodd" transform="matrix(1.00063 0 0 1 171.957 111.125)"/><path d="M873.522 299.043 861.717 312.323 849.913 299.043Z" stroke="#000000" stroke-width="0.983696" stroke-linecap="butt" stroke-linejoin="miter" stroke-miterlimit="8" stroke-opacity="1" fill="#000000" fill-rule="evenodd" fill-opacity="1" transform="matrix(1.00063 0 0 1 171.957 111.125)"/><path d="M794.58 260.433 862.878 260.433" stroke="#000000" stroke-width="1.47554" stroke-linecap="butt" stroke-linejoin="miter" stroke-miterlimit="8" stroke-opacity="1" fill="none" fill-rule="evenodd" transform="matrix(1.00063 0 0 1 171.957 111.125)"/><path d="M771.955 261.171C771.955 252.071 779.003 244.694 787.694 244.694 796.385 244.694 803.433 252.071 803.433 261.171 803.433 270.271 796.385 277.648 787.694 277.648 779.003 277.648 771.955 270.271 771.955 261.171Z" stroke="#000000" stroke-width="2.21332" stroke-linecap="butt" stroke-linejoin="miter" stroke-miterlimit="8" stroke-opacity="1" fill="#FFFFFF" fill-rule="evenodd" fill-opacity="1" transform="matrix(1.00063 0 0 1 171.957 111.125)"/><path d="M2.36422e-06-1.10666 34.065-1.10658 34.065 1.10673-2.36422e-06 1.10666ZM27.9826-4.82915 36.2613 7.76249e-05 27.9826 4.82927C27.4547 5.13725 26.7771 4.95891 26.4691 4.43097 26.1611 3.90304 26.3395 3.22541 26.8674 2.91745L33.5074-0.955837 33.5074 0.95598 26.8674-2.91734C26.3395-3.2253 26.1612-3.90293 26.4691-4.43086 26.7771-4.95881 27.4547-5.1371 27.9826-4.82915Z" fill="#000000" fill-rule="nonzero" fill-opacity="1" transform="matrix(-1.00063 0 0 1 932.446 371.067)"/><text fill="#000000" fill-opacity="1" font-family="Cambria Math,Cambria Math_MSFontService,sans-serif" font-style="normal" font-variant="normal" font-weight="400" font-stretch="normal" font-size="36" text-anchor="start" direction="ltr" writing-mode="lr-tb" unicode-bidi="normal" text-decoration="none" transform="matrix(0.492159 0 0 0.491848 945.656 347)">洧녤</text><text fill="#000000" fill-opacity="1" font-family="Cambria Math,Cambria Math_MSFontService,sans-serif" font-style="normal" font-variant="normal" font-weight="400" font-stretch="normal" font-size="26" text-anchor="start" direction="ltr" writing-mode="lr-tb" unicode-bidi="normal" text-decoration="none" transform="matrix(0.492159 0 0 0.491848 954.377 351)">洧냥洧녡</text><text fill="#000000" fill-opacity="1" font-family="Cambria Math,Cambria Math_MSFontService,sans-serif" font-style="normal" font-variant="normal" font-weight="400" font-stretch="normal" font-size="36" text-anchor="start" direction="ltr" writing-mode="lr-tb" unicode-bidi="normal" text-decoration="none" transform="matrix(0.492159 0 0 0.491848 877.959 394)">洧냪</text><text fill="#000000" fill-opacity="1" font-family="Cambria Math,Cambria Math_MSFontService,sans-serif" font-style="normal" font-variant="normal" font-weight="400" font-stretch="normal" font-size="26" text-anchor="start" direction="ltr" writing-mode="lr-tb" unicode-bidi="normal" text-decoration="none" transform="matrix(0.492159 0 0 0.491848 883.688 398)">洧냥</text><text fill="#000000" fill-opacity="1" font-family="Cambria Math,Cambria Math_MSFontService,sans-serif" font-style="normal" font-variant="normal" font-weight="400" font-stretch="normal" font-size="36" text-anchor="start" direction="ltr" writing-mode="lr-tb" unicode-bidi="normal" text-decoration="none" transform="matrix(0.492159 0 0 0.491848 898.886 394)">=</text><text fill="#000000" fill-opacity="1" font-family="Cambria Math,Cambria Math_MSFontService,sans-serif" font-style="normal" font-variant="normal" font-weight="400" font-stretch="normal" font-size="36" text-anchor="start" direction="ltr" writing-mode="lr-tb" unicode-bidi="normal" text-decoration="none" transform="matrix(0.492159 0 0 0.491848 917.095 394)">0</text><path d="M663.749 210.757 707.592 210.757" stroke="#000000" stroke-width="1.47554" stroke-linecap="butt" stroke-linejoin="miter" stroke-miterlimit="8" stroke-opacity="1" fill="none" fill-rule="evenodd" transform="matrix(1.00063 0 0 1 171.957 111.125)"/><text fill="#000000" fill-opacity="1" font-family="Cambria Math,Cambria Math_MSFontService,sans-serif" font-style="normal" font-variant="normal" font-weight="400" font-stretch="normal" font-size="72" text-anchor="start" direction="ltr" writing-mode="lr-tb" unicode-bidi="normal" text-decoration="none" transform="matrix(0.492159 0 0 0.491848 688.261 376)">=</text><text fill="#000000" fill-opacity="1" font-family="Calibri,Calibri_MSFontService,sans-serif" font-style="normal" font-variant="normal" font-weight="400" font-stretch="normal" font-size="36" text-anchor="start" direction="ltr" writing-mode="lr-tb" unicode-bidi="normal" text-decoration="none" transform="matrix(0.492159 0 0 0.491848 564.957 233)">+ </text><text fill="#000000" fill-opacity="1" font-family="Calibri,Calibri_MSFontService,sans-serif" font-style="normal" font-variant="normal" font-weight="400" font-stretch="normal" font-size="36" text-anchor="start" direction="ltr" writing-mode="lr-tb" unicode-bidi="normal" text-decoration="none" transform="matrix(0.492159 0 0 0.491848 577.876 233)">-</text><text fill="#000000" fill-opacity="1" font-family="Calibri,Calibri_MSFontService,sans-serif" font-style="normal" font-variant="normal" font-weight="400" font-stretch="normal" font-size="36" text-anchor="start" direction="ltr" writing-mode="lr-tb" unicode-bidi="normal" text-decoration="none" transform="matrix(0.492159 0 0 0.491848 951.187 377)">+ </text><text fill="#000000" fill-opacity="1" font-family="Calibri,Calibri_MSFontService,sans-serif" font-style="normal" font-variant="normal" font-weight="400" font-stretch="normal" font-size="36" text-anchor="start" direction="ltr" writing-mode="lr-tb" unicode-bidi="normal" text-decoration="none" transform="matrix(0.492159 0 0 0.491848 964.107 377)">-</text></g></g></g></g></g></svg>