<svg width="741" height="720" xmlns="http://www.w3.org/2000/svg" xmlns:xlink="http://www.w3.org/1999/xlink" xml:space="preserve" overflow="hidden"><defs><clipPath id="clip0"><rect x="269" y="0" width="741" height="720"/></clipPath><clipPath id="clip1"><rect x="270" y="0" width="740" height="720"/></clipPath><clipPath id="clip2"><rect x="270" y="0" width="740" height="720"/></clipPath><clipPath id="clip3"><rect x="270" y="0" width="740" height="720"/></clipPath><clipPath id="clip4"><rect x="270" y="0" width="741" height="720"/></clipPath><linearGradient x1="429.928" y1="468.777" x2="429.928" y2="377.266" gradientUnits="userSpaceOnUse" spreadMethod="reflect" id="fill5"><stop offset="0" stop-color="#ED7D31" stop-opacity="1"/><stop offset="0.98" stop-color="#FFCBB8" stop-opacity="1"/><stop offset="1" stop-color="#4472C4" stop-opacity="1"/></linearGradient></defs><g clip-path="url(#clip0)" transform="translate(-269 0)"><g clip-path="url(#clip1)"><g clip-path="url(#clip2)"><g clip-path="url(#clip3)"><g clip-path="url(#clip4)"><path d="M126.043 377.266 747.626 377.266 747.626 587.05 126.043 587.05Z" stroke="#AE5A21" stroke-width="1.72662" stroke-linecap="butt" stroke-linejoin="miter" stroke-miterlimit="8" stroke-opacity="1" fill="#ED7D31" fill-rule="nonzero" fill-opacity="1" transform="matrix(1.00136 0 0 1 148.972 -34.5324)"/><text fill="#FFFFFF" fill-opacity="1" font-family="Calibri,Calibri_MSFontService,sans-serif" font-style="normal" font-variant="normal" font-weight="400" font-stretch="normal" font-size="36" text-anchor="start" direction="ltr" writing-mode="lr-tb" unicode-bidi="normal" text-decoration="none" transform="matrix(0.864486 0 0 0.863309 578.653 477)">+</text><text fill="#FFFFFF" fill-opacity="1" font-family="Calibri,Calibri_MSFontService,sans-serif" font-style="normal" font-variant="normal" font-weight="400" font-stretch="normal" font-size="36" text-anchor="start" direction="ltr" writing-mode="lr-tb" unicode-bidi="normal" text-decoration="none" transform="matrix(0.864486 0 0 0.863309 391.924 515)">+</text><text fill="#FFFFFF" fill-opacity="1" font-family="Calibri,Calibri_MSFontService,sans-serif" font-style="normal" font-variant="normal" font-weight="400" font-stretch="normal" font-size="36" text-anchor="start" direction="ltr" writing-mode="lr-tb" unicode-bidi="normal" text-decoration="none" transform="matrix(0.864486 0 0 0.863309 516.41 515)">p</text><text fill="#FFFFFF" fill-opacity="1" font-family="Calibri,Calibri_MSFontService,sans-serif" font-style="normal" font-variant="normal" font-weight="400" font-stretch="normal" font-size="36" text-anchor="start" direction="ltr" writing-mode="lr-tb" unicode-bidi="normal" text-decoration="none" transform="matrix(0.864486 0 0 0.863309 532.835 515)">-</text><text fill="#FFFFFF" fill-opacity="1" font-family="Calibri,Calibri_MSFontService,sans-serif" font-style="normal" font-variant="normal" font-weight="400" font-stretch="normal" font-size="36" text-anchor="start" direction="ltr" writing-mode="lr-tb" unicode-bidi="normal" text-decoration="none" transform="matrix(0.864486 0 0 0.863309 542.344 515)">substrate </text><text fill="#FFFFFF" fill-opacity="1" font-family="Calibri,Calibri_MSFontService,sans-serif" font-style="normal" font-variant="normal" font-weight="400" font-stretch="normal" font-size="36" text-anchor="start" direction="ltr" writing-mode="lr-tb" unicode-bidi="normal" text-decoration="none" transform="matrix(0.864486 0 0 0.863309 765.382 515)">+</text><path d="M216.691 377.266 320.288 377.266 320.288 467.914 216.691 467.914Z" stroke="#2F528F" stroke-width="1.72662" stroke-linecap="butt" stroke-linejoin="miter" stroke-miterlimit="8" stroke-opacity="1" fill="#4472C4" fill-rule="nonzero" fill-opacity="1" transform="matrix(1.00136 0 0 1 148.972 -34.5324)"/><text fill="#FFFFFF" fill-opacity="1" font-family="Calibri,Calibri_MSFontService,sans-serif" font-style="normal" font-variant="normal" font-weight="400" font-stretch="normal" font-size="36" text-anchor="start" direction="ltr" writing-mode="lr-tb" unicode-bidi="normal" text-decoration="none" transform="matrix(0.864486 0 0 0.863309 401.495 399)">n+</text><path d="M542.158 377.266 645.755 377.266 645.755 467.914 542.158 467.914Z" stroke="#2F528F" stroke-width="1.72662" stroke-linecap="butt" stroke-linejoin="miter" stroke-miterlimit="8" stroke-opacity="1" fill="#4472C4" fill-rule="nonzero" fill-opacity="1" transform="matrix(1.00136 0 0 1 148.972 -34.5324)"/><text fill="#FFFFFF" fill-opacity="1" font-family="Calibri,Calibri_MSFontService,sans-serif" font-style="normal" font-variant="normal" font-weight="400" font-stretch="normal" font-size="36" text-anchor="start" direction="ltr" writing-mode="lr-tb" unicode-bidi="normal" text-decoration="none" transform="matrix(0.864486 0 0 0.863309 727.53 399)">n+</text><path d="M320.288 335.827 542.158 335.827 542.158 377.266 320.288 377.266Z" stroke="#787878" stroke-width="1.72662" stroke-linecap="butt" stroke-linejoin="miter" stroke-miterlimit="8" stroke-opacity="1" fill="#A5A5A5" fill-rule="nonzero" fill-opacity="1" transform="matrix(1.00136 0 0 1 148.972 -34.5324)"/><text fill="#FFFFFF" fill-opacity="1" font-family="Calibri,Calibri_MSFontService,sans-serif" font-style="normal" font-variant="normal" font-weight="400" font-stretch="normal" font-size="36" text-anchor="start" direction="ltr" writing-mode="lr-tb" unicode-bidi="normal" text-decoration="none" transform="matrix(0.864486 0 0 0.863309 532.072 332)">Si oxide</text><path d="M320.288 294.388 542.158 294.388 542.158 335.827 320.288 335.827Z" stroke="#507E32" stroke-width="1.72662" stroke-linecap="butt" stroke-linejoin="miter" stroke-miterlimit="8" stroke-opacity="1" fill="#70AD47" fill-rule="nonzero" fill-opacity="1" transform="matrix(1.00136 0 0 1 148.972 -34.5324)"/><text fill="#FFFFFF" fill-opacity="1" font-family="Calibri,Calibri_MSFontService,sans-serif" font-style="normal" font-variant="normal" font-weight="400" font-stretch="normal" font-size="36" text-anchor="start" direction="ltr" writing-mode="lr-tb" unicode-bidi="normal" text-decoration="none" transform="matrix(0.864486 0 0 0.863309 539.226 291)">poly Si</text><path d="M0 0 0.000135954 173.155" stroke="#000000" stroke-width="2.58993" stroke-linecap="butt" stroke-linejoin="miter" stroke-miterlimit="8" stroke-opacity="1" fill="none" fill-rule="evenodd" transform="matrix(1.00136 0 0 -1 418.259 342.795)"/><path d="M0 0 0.000135954 173.155" stroke="#000000" stroke-width="2.58993" stroke-linecap="butt" stroke-linejoin="miter" stroke-miterlimit="8" stroke-opacity="1" fill="none" fill-rule="evenodd" transform="matrix(1.00136 0 0 -1 745.035 342.795)"/><path d="M0 0 0.000135954 173.155" stroke="#000000" stroke-width="2.58993" stroke-linecap="butt" stroke-linejoin="miter" stroke-miterlimit="8" stroke-opacity="1" fill="none" fill-rule="evenodd" transform="matrix(1.00136 0 0 -1 580.783 259.917)"/><path d="M148.921 204.173 268.797 204.173" stroke="#000000" stroke-width="2.58993" stroke-linecap="butt" stroke-linejoin="miter" stroke-miterlimit="8" stroke-opacity="1" fill="none" fill-rule="evenodd" transform="matrix(1.00136 0 0 1 148.972 -34.5324)"/><path d="M311.223 121.295 431.1 121.295" stroke="#000000" stroke-width="2.58993" stroke-linecap="butt" stroke-linejoin="miter" stroke-miterlimit="8" stroke-opacity="1" fill="none" fill-rule="evenodd" transform="matrix(1.00136 0 0 1 148.972 -34.5324)"/><path d="M594.388 203.309 714.265 203.309" stroke="#000000" stroke-width="2.58993" stroke-linecap="butt" stroke-linejoin="miter" stroke-miterlimit="8" stroke-opacity="1" fill="none" fill-rule="evenodd" transform="matrix(1.00136 0 0 1 148.972 -34.5324)"/><path d="M148.921 203.309 148.921 272.867" stroke="#000000" stroke-width="2.58993" stroke-linecap="butt" stroke-linejoin="miter" stroke-miterlimit="8" stroke-opacity="1" fill="none" fill-rule="evenodd" transform="matrix(1.00136 0 0 1 148.972 -34.5324)"/><path d="M311.223 121.295 311.223 190.853" stroke="#000000" stroke-width="2.58993" stroke-linecap="butt" stroke-linejoin="miter" stroke-miterlimit="8" stroke-opacity="1" fill="none" fill-rule="evenodd" transform="matrix(1.00136 0 0 1 148.972 -34.5324)"/><path d="M169.209 271.079 148.489 294.388 127.77 271.079Z" stroke="#000000" stroke-width="1.72662" stroke-linecap="butt" stroke-linejoin="miter" stroke-miterlimit="8" stroke-opacity="1" fill="#000000" fill-rule="evenodd" fill-opacity="1" transform="matrix(1.00136 0 0 1 148.972 -34.5324)"/><path d="M333.237 190.791 312.518 214.101 291.799 190.791Z" stroke="#000000" stroke-width="1.72662" stroke-linecap="butt" stroke-linejoin="miter" stroke-miterlimit="8" stroke-opacity="1" fill="#000000" fill-rule="evenodd" fill-opacity="1" transform="matrix(1.00136 0 0 1 148.972 -34.5324)"/><path d="M320.719 422.59 320.719 637.924" stroke="#000000" stroke-width="3.88489" stroke-linecap="butt" stroke-linejoin="round" stroke-miterlimit="10" stroke-dasharray="15.5396 11.6547" stroke-opacity="1" fill="none" fill-rule="evenodd" transform="matrix(1.00136 0 0 1 148.972 -34.5324)"/><path d="M542.59 422.59 542.59 626.084" stroke="#000000" stroke-width="3.88489" stroke-linecap="butt" stroke-linejoin="round" stroke-miterlimit="10" stroke-dasharray="15.5396 11.6547" stroke-opacity="1" fill="none" fill-rule="evenodd" transform="matrix(1.00136 0 0 1 148.972 -34.5324)"/><path d="M542.59 638.417C542.59 652.96 540.625 664.748 538.202 664.748L436.043 664.748C433.62 664.748 431.655 676.537 431.655 691.079 431.655 676.537 429.69 664.748 427.266 664.748L325.108 664.748C322.684 664.748 320.719 652.96 320.719 638.417" stroke="#ED7D31" stroke-width="3.88489" stroke-linecap="butt" stroke-linejoin="miter" stroke-miterlimit="8" stroke-opacity="1" fill="none" fill-rule="evenodd" transform="matrix(1.00136 0 0 1 148.972 -34.5324)"/><text fill="#000000" fill-opacity="1" font-family="Calibri,Calibri_MSFontService,sans-serif" font-style="normal" font-variant="normal" font-weight="400" font-stretch="normal" font-size="36" text-anchor="start" direction="ltr" writing-mode="lr-tb" unicode-bidi="normal" text-decoration="none" transform="matrix(0.864486 0 0 0.863309 532.934 692)">channel</text><text fill="#000000" fill-opacity="1" font-family="Calibri,Calibri_MSFontService,sans-serif" font-style="normal" font-variant="normal" font-weight="400" font-stretch="normal" font-size="36" text-anchor="start" direction="ltr" writing-mode="lr-tb" unicode-bidi="normal" text-decoration="none" transform="matrix(0.864486 0 0 0.863309 289.148 294)">S</text><text fill="#000000" fill-opacity="1" font-family="Calibri,Calibri_MSFontService,sans-serif" font-style="normal" font-variant="normal" font-weight="400" font-stretch="normal" font-size="36" text-anchor="start" direction="ltr" writing-mode="lr-tb" unicode-bidi="normal" text-decoration="none" transform="matrix(0.864486 0 0 0.863309 592.954 237)">G</text><path d="M835.252 204.173 835.252 273.73" stroke="#000000" stroke-width="2.58993" stroke-linecap="butt" stroke-linejoin="miter" stroke-miterlimit="8" stroke-opacity="1" fill="none" fill-rule="evenodd" transform="matrix(1.00136 0 0 1 148.972 -34.5324)"/><path d="M855.54 270.216 834.82 294.388 814.101 270.216Z" stroke="#000000" stroke-width="1.72662" stroke-linecap="butt" stroke-linejoin="miter" stroke-miterlimit="8" stroke-opacity="1" fill="#000000" fill-rule="evenodd" fill-opacity="1" transform="matrix(1.00136 0 0 1 148.972 -34.5324)"/><path d="M716.978 203.309 836.855 203.309" stroke="#000000" stroke-width="2.58993" stroke-linecap="butt" stroke-linejoin="miter" stroke-miterlimit="8" stroke-opacity="1" fill="none" fill-rule="evenodd" transform="matrix(1.00136 0 0 1 148.972 -34.5324)"/><path d="M678.129 203.741C678.129 187.768 690.305 174.82 705.324 174.82 720.343 174.82 732.518 187.768 732.518 203.741 732.518 219.714 720.343 232.662 705.324 232.662 690.305 232.662 678.129 219.714 678.129 203.741Z" stroke="#000000" stroke-width="3.88489" stroke-linecap="butt" stroke-linejoin="miter" stroke-miterlimit="8" stroke-opacity="1" fill="#FFFFFF" fill-rule="evenodd" fill-opacity="1" transform="matrix(1.00136 0 0 1 148.972 -34.5324)"/><path d="M625.036 239.568 625.036 310.06 622.446 310.06 622.446 239.568ZM628.921 308.334 623.741 318.693 618.561 308.334Z" fill="#000000" fill-rule="nonzero" fill-opacity="1" transform="matrix(1.00136 0 0 1 148.972 -34.5324)"/><text fill="#000000" fill-opacity="1" font-family="Cambria Math,Cambria Math_MSFontService,sans-serif" font-style="normal" font-variant="normal" font-weight="400" font-stretch="normal" font-size="36" text-anchor="start" direction="ltr" writing-mode="lr-tb" unicode-bidi="normal" text-decoration="none" transform="matrix(0.864486 0 0 0.863309 894.997 142)">ğ‘‰</text><text fill="#000000" fill-opacity="1" font-family="Cambria Math,Cambria Math_MSFontService,sans-serif" font-style="normal" font-variant="normal" font-weight="400" font-stretch="normal" font-size="26" text-anchor="start" direction="ltr" writing-mode="lr-tb" unicode-bidi="normal" text-decoration="none" transform="matrix(0.864486 0 0 0.863309 910.315 148)">ğ·ğ‘†</text><text fill="#000000" fill-opacity="1" font-family="Calibri,Calibri_MSFontService,sans-serif" font-style="normal" font-variant="normal" font-weight="400" font-stretch="normal" font-size="36" text-anchor="start" direction="ltr" writing-mode="lr-tb" unicode-bidi="normal" text-decoration="none" transform="matrix(0.864486 0 0 0.863309 971.335 295)">D</text><text fill="#000000" fill-opacity="1" font-family="Cambria Math,Cambria Math_MSFontService,sans-serif" font-style="normal" font-variant="normal" font-weight="400" font-stretch="normal" font-size="36" text-anchor="start" direction="ltr" writing-mode="lr-tb" unicode-bidi="normal" text-decoration="none" transform="matrix(0.864486 0 0 0.863309 782.187 256)">ğ¼</text><text fill="#000000" fill-opacity="1" font-family="Cambria Math,Cambria Math_MSFontService,sans-serif" font-style="normal" font-variant="normal" font-weight="400" font-stretch="normal" font-size="26" text-anchor="start" direction="ltr" writing-mode="lr-tb" unicode-bidi="normal" text-decoration="none" transform="matrix(0.864486 0 0 0.863309 792.25 262)">ğ·</text><text fill="#000000" fill-opacity="1" font-family="Cambria Math,Cambria Math_MSFontService,sans-serif" font-style="normal" font-variant="normal" font-weight="400" font-stretch="normal" font-size="36" text-anchor="start" direction="ltr" writing-mode="lr-tb" unicode-bidi="normal" text-decoration="none" transform="matrix(0.864486 0 0 0.863309 818.944 256)">=</text><text fill="#000000" fill-opacity="1" font-family="Cambria Math,Cambria Math_MSFontService,sans-serif" font-style="normal" font-variant="normal" font-weight="400" font-stretch="normal" font-size="36" text-anchor="start" direction="ltr" writing-mode="lr-tb" unicode-bidi="normal" text-decoration="none" transform="matrix(0.864486 0 0 0.863309 850.93 256)">0</text><path d="M319.424 377.266 540.432 377.266 540.432 468.777 319.424 468.777Z" fill="url(#fill5)" fill-rule="nonzero" transform="matrix(1.00136 0 0 1 148.972 -34.5324)"/><path d="M344.029 121.727C344.029 105.754 356.204 92.8058 371.223 92.8058 386.242 92.8058 398.417 105.754 398.417 121.727 398.417 137.7 386.242 150.647 371.223 150.647 356.204 150.647 344.029 137.7 344.029 121.727Z" stroke="#000000" stroke-width="3.88489" stroke-linecap="butt" stroke-linejoin="miter" stroke-miterlimit="8" stroke-opacity="1" fill="#FFFFFF" fill-rule="evenodd" fill-opacity="1" transform="matrix(1.00136 0 0 1 148.972 -34.5324)"/><text fill="#000000" fill-opacity="1" font-family="Calibri,Calibri_MSFontService,sans-serif" font-style="normal" font-variant="normal" font-weight="400" font-stretch="normal" font-size="36" text-anchor="start" direction="ltr" writing-mode="lr-tb" unicode-bidi="normal" text-decoration="none" transform="matrix(0.864486 0 0 0.863309 504.035 96)">-</text><text fill="#000000" fill-opacity="1" font-family="Calibri,Calibri_MSFontService,sans-serif" font-style="normal" font-variant="normal" font-weight="400" font-stretch="normal" font-size="36" text-anchor="start" direction="ltr" writing-mode="lr-tb" unicode-bidi="normal" text-decoration="none" transform="matrix(0.864486 0 0 0.863309 520.677 96)">+</text><text fill="#000000" fill-opacity="1" font-family="Cambria Math,Cambria Math_MSFontService,sans-serif" font-style="normal" font-variant="normal" font-weight="400" font-stretch="normal" font-size="36" text-anchor="start" direction="ltr" writing-mode="lr-tb" unicode-bidi="normal" text-decoration="none" transform="matrix(0.864486 0 0 0.863309 498 36)">ğ‘‰</text><text fill="#000000" fill-opacity="1" font-family="Cambria Math,Cambria Math_MSFontService,sans-serif" font-style="normal" font-variant="normal" font-weight="400" font-stretch="normal" font-size="26" text-anchor="start" direction="ltr" writing-mode="lr-tb" unicode-bidi="normal" text-decoration="none" transform="matrix(0.864486 0 0 0.863309 513.319 43)">ğº</text><text fill="#000000" fill-opacity="1" font-family="Cambria Math,Cambria Math_MSFontService,sans-serif" font-style="normal" font-variant="normal" font-weight="400" font-stretch="normal" font-size="26" text-anchor="start" direction="ltr" writing-mode="lr-tb" unicode-bidi="normal" text-decoration="none" transform="matrix(0.864486 0 0 0.863309 528.231 43)">ğ‘†</text><text fill="#000000" fill-opacity="1" font-family="Cambria Math,Cambria Math_MSFontService,sans-serif" font-style="normal" font-variant="normal" font-weight="400" font-stretch="normal" font-size="36" text-anchor="start" direction="ltr" writing-mode="lr-tb" unicode-bidi="normal" text-decoration="none" transform="matrix(0.864486 0 0 0.863309 551.14 36)">&lt;</text><text fill="#000000" fill-opacity="1" font-family="Cambria Math,Cambria Math_MSFontService,sans-serif" font-style="normal" font-variant="normal" font-weight="400" font-stretch="normal" font-size="36" text-anchor="start" direction="ltr" writing-mode="lr-tb" unicode-bidi="normal" text-decoration="none" transform="matrix(0.864486 0 0 0.863309 583.126 36)">ğ‘‰</text><text fill="#000000" fill-opacity="1" font-family="Cambria Math,Cambria Math_MSFontService,sans-serif" font-style="normal" font-variant="normal" font-weight="400" font-stretch="normal" font-size="26" text-anchor="start" direction="ltr" writing-mode="lr-tb" unicode-bidi="normal" text-decoration="none" transform="matrix(0.864486 0 0 0.863309 599.552 43)">ğ‘‡ğ»</text><text fill="#000000" fill-opacity="1" font-family="Calibri,Calibri_MSFontService,sans-serif" font-style="normal" font-variant="normal" font-weight="400" font-stretch="normal" font-size="36" text-anchor="start" direction="ltr" writing-mode="lr-tb" unicode-bidi="normal" text-decoration="none" transform="matrix(0.864486 0 0 0.863309 839.284 179)">+ </text><text fill="#000000" fill-opacity="1" font-family="Calibri,Calibri_MSFontService,sans-serif" font-style="normal" font-variant="normal" font-weight="400" font-stretch="normal" font-size="36" text-anchor="start" direction="ltr" writing-mode="lr-tb" unicode-bidi="normal" text-decoration="none" transform="matrix(0.864486 0 0 0.863309 861.977 179)">-</text><path d="M354.82 447.626C354.82 437.852 362.55 429.928 372.086 429.928 381.622 429.928 389.353 437.852 389.353 447.626 389.353 457.4 381.622 465.324 372.086 465.324 362.55 465.324 354.82 457.4 354.82 447.626Z" stroke="#2F528F" stroke-width="1.72662" stroke-linecap="butt" stroke-linejoin="miter" stroke-miterlimit="8" stroke-opacity="1" fill="#4472C4" fill-rule="evenodd" fill-opacity="1" transform="matrix(1.00136 0 0 1 148.972 -34.5324)"/><text fill="#FFFFFF" fill-opacity="1" font-family="Calibri,Calibri_MSFontService,sans-serif" font-style="normal" font-variant="normal" font-weight="400" font-stretch="normal" font-size="36" text-anchor="start" direction="ltr" writing-mode="lr-tb" unicode-bidi="normal" text-decoration="none" transform="matrix(0.864486 0 0 0.863309 516.786 424)">-</text><path d="M416.115 447.626C416.115 437.852 424.039 429.928 433.813 429.928 443.587 429.928 451.511 437.852 451.511 447.626 451.511 457.4 443.587 465.324 433.813 465.324 424.039 465.324 416.115 457.4 416.115 447.626Z" stroke="#2F528F" stroke-width="1.72662" stroke-linecap="butt" stroke-linejoin="miter" stroke-miterlimit="8" stroke-opacity="1" fill="#4472C4" fill-rule="evenodd" fill-opacity="1" transform="matrix(1.00136 0 0 1 148.972 -34.5324)"/><text fill="#FFFFFF" fill-opacity="1" font-family="Calibri,Calibri_MSFontService,sans-serif" font-style="normal" font-variant="normal" font-weight="400" font-stretch="normal" font-size="36" text-anchor="start" direction="ltr" writing-mode="lr-tb" unicode-bidi="normal" text-decoration="none" transform="matrix(0.864486 0 0 0.863309 578.576 424)">-</text><path d="M354.82 406.187C354.82 396.413 362.744 388.489 372.518 388.489 382.292 388.489 390.216 396.413 390.216 406.187 390.216 415.961 382.292 423.885 372.518 423.885 362.744 423.885 354.82 415.961 354.82 406.187Z" stroke="#2F528F" stroke-width="1.72662" stroke-linecap="butt" stroke-linejoin="miter" stroke-miterlimit="8" stroke-opacity="1" fill="#4472C4" fill-rule="evenodd" fill-opacity="1" transform="matrix(1.00136 0 0 1 148.972 -34.5324)"/><text fill="#FFFFFF" fill-opacity="1" font-family="Calibri,Calibri_MSFontService,sans-serif" font-style="normal" font-variant="normal" font-weight="400" font-stretch="normal" font-size="36" text-anchor="start" direction="ltr" writing-mode="lr-tb" unicode-bidi="normal" text-decoration="none" transform="matrix(0.864486 0 0 0.863309 517.122 382)">-</text><path d="M475.683 445.468C475.683 435.932 483.607 428.201 493.381 428.201 503.156 428.201 511.079 435.932 511.079 445.468 511.079 455.004 503.156 462.734 493.381 462.734 483.607 462.734 475.683 455.004 475.683 445.468Z" stroke="#2F528F" stroke-width="1.72662" stroke-linecap="butt" stroke-linejoin="miter" stroke-miterlimit="8" stroke-opacity="1" fill="#4472C4" fill-rule="evenodd" fill-opacity="1" transform="matrix(1.00136 0 0 1 148.972 -34.5324)"/><text fill="#FFFFFF" fill-opacity="1" font-family="Calibri,Calibri_MSFontService,sans-serif" font-style="normal" font-variant="normal" font-weight="400" font-stretch="normal" font-size="36" text-anchor="start" direction="ltr" writing-mode="lr-tb" unicode-bidi="normal" text-decoration="none" transform="matrix(0.864486 0 0 0.863309 638.479 421)">-</text><path d="M416.115 406.187C416.115 396.413 423.845 388.489 433.381 388.489 442.917 388.489 450.647 396.413 450.647 406.187 450.647 415.961 442.917 423.885 433.381 423.885 423.845 423.885 416.115 415.961 416.115 406.187Z" stroke="#2F528F" stroke-width="1.72662" stroke-linecap="butt" stroke-linejoin="miter" stroke-miterlimit="8" stroke-opacity="1" fill="#4472C4" fill-rule="evenodd" fill-opacity="1" transform="matrix(1.00136 0 0 1 148.972 -34.5324)"/><text fill="#FFFFFF" fill-opacity="1" font-family="Calibri,Calibri_MSFontService,sans-serif" font-style="normal" font-variant="normal" font-weight="400" font-stretch="normal" font-size="36" text-anchor="start" direction="ltr" writing-mode="lr-tb" unicode-bidi="normal" text-decoration="none" transform="matrix(0.864486 0 0 0.863309 578.137 382)">-</text><path d="M477.41 405.755C477.41 396.219 485.14 388.489 494.676 388.489 504.212 388.489 511.942 396.219 511.942 405.755 511.942 415.291 504.212 423.022 494.676 423.022 485.14 423.022 477.41 415.291 477.41 405.755Z" stroke="#2F528F" stroke-width="1.72662" stroke-linecap="butt" stroke-linejoin="miter" stroke-miterlimit="8" stroke-opacity="1" fill="#4472C4" fill-rule="evenodd" fill-opacity="1" transform="matrix(1.00136 0 0 1 148.972 -34.5324)"/><text fill="#FFFFFF" fill-opacity="1" font-family="Calibri,Calibri_MSFontService,sans-serif" font-style="normal" font-variant="normal" font-weight="400" font-stretch="normal" font-size="36" text-anchor="start" direction="ltr" writing-mode="lr-tb" unicode-bidi="normal" text-decoration="none" transform="matrix(0.864486 0 0 0.863309 639.591 382)">-</text></g></g></g></g></g></svg>