<svg width="816" height="416" xmlns="http://www.w3.org/2000/svg" xmlns:xlink="http://www.w3.org/1999/xlink" xml:space="preserve" overflow="hidden"><defs><clipPath id="clip0"><rect x="232" y="152" width="816" height="416"/></clipPath><clipPath id="clip1"><rect x="232" y="153" width="816" height="414"/></clipPath><clipPath id="clip2"><rect x="232" y="153" width="816" height="414"/></clipPath><clipPath id="clip3"><rect x="232" y="153" width="816" height="414"/></clipPath><clipPath id="clip4"><rect x="232" y="153" width="816" height="414"/></clipPath><linearGradient x1="247.209" y1="269.547" x2="247.209" y2="216.928" gradientUnits="userSpaceOnUse" spreadMethod="reflect" id="fill5"><stop offset="0" stop-color="#ED7D31" stop-opacity="1"/><stop offset="0.74" stop-color="#FFCBB8" stop-opacity="1"/><stop offset="1" stop-color="#4472C4" stop-opacity="1"/></linearGradient></defs><g clip-path="url(#clip0)" transform="translate(-232 -152)"><g clip-path="url(#clip1)"><g clip-path="url(#clip2)"><g clip-path="url(#clip3)"><g clip-path="url(#clip4)"><path d="M72.4748 216.928 429.885 216.928 429.885 337.554 72.4748 337.554Z" stroke="#AE5A21" stroke-width="0.992806" stroke-linecap="butt" stroke-linejoin="miter" stroke-miterlimit="8" stroke-opacity="1" fill="#ED7D31" fill-rule="nonzero" fill-opacity="1" transform="matrix(1.00233 0 0 1 162.341 133.144)"/><text fill="#FFFFFF" fill-opacity="1" font-family="Calibri,Calibri_MSFontService,sans-serif" font-style="normal" font-variant="normal" font-weight="400" font-stretch="normal" font-size="36" text-anchor="start" direction="ltr" writing-mode="lr-tb" unicode-bidi="normal" text-decoration="none" transform="matrix(0.497561 0 0 0.496403 302.174 449)">+</text><text fill="#FFFFFF" fill-opacity="1" font-family="Calibri,Calibri_MSFontService,sans-serif" font-style="normal" font-variant="normal" font-weight="400" font-stretch="normal" font-size="36" text-anchor="start" direction="ltr" writing-mode="lr-tb" unicode-bidi="normal" text-decoration="none" transform="matrix(0.497561 0 0 0.496403 373.823 449)">p</text><text fill="#FFFFFF" fill-opacity="1" font-family="Calibri,Calibri_MSFontService,sans-serif" font-style="normal" font-variant="normal" font-weight="400" font-stretch="normal" font-size="36" text-anchor="start" direction="ltr" writing-mode="lr-tb" unicode-bidi="normal" text-decoration="none" transform="matrix(0.497561 0 0 0.496403 383.276 449)">-</text><text fill="#FFFFFF" fill-opacity="1" font-family="Calibri,Calibri_MSFontService,sans-serif" font-style="normal" font-variant="normal" font-weight="400" font-stretch="normal" font-size="36" text-anchor="start" direction="ltr" writing-mode="lr-tb" unicode-bidi="normal" text-decoration="none" transform="matrix(0.497561 0 0 0.496403 388.75 449)">substrate </text><text fill="#FFFFFF" fill-opacity="1" font-family="Calibri,Calibri_MSFontService,sans-serif" font-style="normal" font-variant="normal" font-weight="400" font-stretch="normal" font-size="36" text-anchor="start" direction="ltr" writing-mode="lr-tb" unicode-bidi="normal" text-decoration="none" transform="matrix(0.497561 0 0 0.496403 517.12 449)">+</text><path d="M124.597 216.928 184.165 216.928 184.165 269.05 124.597 269.05Z" stroke="#2F528F" stroke-width="0.992806" stroke-linecap="butt" stroke-linejoin="miter" stroke-miterlimit="8" stroke-opacity="1" fill="#4472C4" fill-rule="nonzero" fill-opacity="1" transform="matrix(1.00233 0 0 1 162.341 133.144)"/><text fill="#FFFFFF" fill-opacity="1" font-family="Calibri,Calibri_MSFontService,sans-serif" font-style="normal" font-variant="normal" font-weight="400" font-stretch="normal" font-size="36" text-anchor="start" direction="ltr" writing-mode="lr-tb" unicode-bidi="normal" text-decoration="none" transform="matrix(0.497561 0 0 0.496403 307.683 382)">n+</text><path d="M311.741 216.928 371.309 216.928 371.309 269.05 311.741 269.05Z" stroke="#2F528F" stroke-width="0.992806" stroke-linecap="butt" stroke-linejoin="miter" stroke-miterlimit="8" stroke-opacity="1" fill="#4472C4" fill-rule="nonzero" fill-opacity="1" transform="matrix(1.00233 0 0 1 162.341 133.144)"/><text fill="#FFFFFF" fill-opacity="1" font-family="Calibri,Calibri_MSFontService,sans-serif" font-style="normal" font-variant="normal" font-weight="400" font-stretch="normal" font-size="36" text-anchor="start" direction="ltr" writing-mode="lr-tb" unicode-bidi="normal" text-decoration="none" transform="matrix(0.497561 0 0 0.496403 495.335 382)">n+</text><path d="M184.165 193.101 311.741 193.101 311.741 216.928 184.165 216.928Z" stroke="#787878" stroke-width="0.992806" stroke-linecap="butt" stroke-linejoin="miter" stroke-miterlimit="8" stroke-opacity="1" fill="#A5A5A5" fill-rule="nonzero" fill-opacity="1" transform="matrix(1.00233 0 0 1 162.341 133.144)"/><text fill="#FFFFFF" fill-opacity="1" font-family="Calibri,Calibri_MSFontService,sans-serif" font-style="normal" font-variant="normal" font-weight="400" font-stretch="normal" font-size="36" text-anchor="start" direction="ltr" writing-mode="lr-tb" unicode-bidi="normal" text-decoration="none" transform="matrix(0.497561 0 0 0.496403 382.838 344)">Si oxide</text><path d="M184.165 169.273 311.741 169.273 311.741 193.101 184.165 193.101Z" stroke="#507E32" stroke-width="0.992806" stroke-linecap="butt" stroke-linejoin="miter" stroke-miterlimit="8" stroke-opacity="1" fill="#70AD47" fill-rule="nonzero" fill-opacity="1" transform="matrix(1.00233 0 0 1 162.341 133.144)"/><text fill="#FFFFFF" fill-opacity="1" font-family="Calibri,Calibri_MSFontService,sans-serif" font-style="normal" font-variant="normal" font-weight="400" font-stretch="normal" font-size="36" text-anchor="start" direction="ltr" writing-mode="lr-tb" unicode-bidi="normal" text-decoration="none" transform="matrix(0.497561 0 0 0.496403 386.955 320)">poly Si</text><path d="M0 0 7.81735e-05 99.564" stroke="#000000" stroke-width="1.48921" stroke-linecap="butt" stroke-linejoin="miter" stroke-miterlimit="8" stroke-opacity="1" fill="none" fill-rule="evenodd" transform="matrix(1.00233 0 0 -1 317.332 350.107)"/><path d="M0 0 7.81735e-05 99.564" stroke="#000000" stroke-width="1.48921" stroke-linecap="butt" stroke-linejoin="miter" stroke-miterlimit="8" stroke-opacity="1" fill="none" fill-rule="evenodd" transform="matrix(1.00233 0 0 -1 505.41 350.107)"/><path d="M0 0 7.81735e-05 99.564" stroke="#000000" stroke-width="1.48921" stroke-linecap="butt" stroke-linejoin="miter" stroke-miterlimit="8" stroke-opacity="1" fill="none" fill-rule="evenodd" transform="matrix(1.00233 0 0 -1 410.873 302.453)"/><path d="M85.6295 117.399 154.559 117.399" stroke="#000000" stroke-width="1.48921" stroke-linecap="butt" stroke-linejoin="miter" stroke-miterlimit="8" stroke-opacity="1" fill="none" fill-rule="evenodd" transform="matrix(1.00233 0 0 1 162.341 133.144)"/><path d="M178.953 69.7446 247.882 69.7446" stroke="#000000" stroke-width="1.48921" stroke-linecap="butt" stroke-linejoin="miter" stroke-miterlimit="8" stroke-opacity="1" fill="none" fill-rule="evenodd" transform="matrix(1.00233 0 0 1 162.341 133.144)"/><path d="M341.773 116.903 410.702 116.903" stroke="#000000" stroke-width="1.48921" stroke-linecap="butt" stroke-linejoin="miter" stroke-miterlimit="8" stroke-opacity="1" fill="none" fill-rule="evenodd" transform="matrix(1.00233 0 0 1 162.341 133.144)"/><path d="M85.6295 116.903 85.6295 156.899" stroke="#000000" stroke-width="1.48921" stroke-linecap="butt" stroke-linejoin="miter" stroke-miterlimit="8" stroke-opacity="1" fill="none" fill-rule="evenodd" transform="matrix(1.00233 0 0 1 162.341 133.144)"/><path d="M178.953 69.7446 178.953 109.74" stroke="#000000" stroke-width="1.48921" stroke-linecap="butt" stroke-linejoin="miter" stroke-miterlimit="8" stroke-opacity="1" fill="none" fill-rule="evenodd" transform="matrix(1.00233 0 0 1 162.341 133.144)"/><path d="M97.295 155.871 85.3813 169.273 73.4676 155.871Z" stroke="#000000" stroke-width="0.992806" stroke-linecap="butt" stroke-linejoin="miter" stroke-miterlimit="8" stroke-opacity="1" fill="#000000" fill-rule="evenodd" fill-opacity="1" transform="matrix(1.00233 0 0 1 162.341 133.144)"/><path d="M191.612 109.705 179.698 123.108 167.784 109.705Z" stroke="#000000" stroke-width="0.992806" stroke-linecap="butt" stroke-linejoin="miter" stroke-miterlimit="8" stroke-opacity="1" fill="#000000" fill-rule="evenodd" fill-opacity="1" transform="matrix(1.00233 0 0 1 162.341 133.144)"/><path d="M184.414 242.989 184.414 366.806" stroke="#000000" stroke-width="2.23381" stroke-linecap="butt" stroke-linejoin="round" stroke-miterlimit="10" stroke-dasharray="8.93525 6.70144" stroke-opacity="1" fill="none" fill-rule="evenodd" transform="matrix(1.00233 0 0 1 162.341 133.144)"/><path d="M311.989 242.989 311.989 359.998" stroke="#000000" stroke-width="2.23381" stroke-linecap="butt" stroke-linejoin="round" stroke-miterlimit="10" stroke-dasharray="8.93525 6.70144" stroke-opacity="1" fill="none" fill-rule="evenodd" transform="matrix(1.00233 0 0 1 162.341 133.144)"/><path d="M311.989 367.09C311.989 375.452 310.859 382.23 309.466 382.23L250.725 382.23C249.331 382.23 248.201 389.009 248.201 397.371 248.201 389.009 247.072 382.23 245.678 382.23L186.937 382.23C185.543 382.23 184.414 375.452 184.414 367.09" stroke="#ED7D31" stroke-width="2.23381" stroke-linecap="butt" stroke-linejoin="miter" stroke-miterlimit="8" stroke-opacity="1" fill="none" fill-rule="evenodd" transform="matrix(1.00233 0 0 1 162.341 133.144)"/><text fill="#000000" fill-opacity="1" font-family="Calibri,Calibri_MSFontService,sans-serif" font-style="normal" font-variant="normal" font-weight="400" font-stretch="normal" font-size="36" text-anchor="start" direction="ltr" writing-mode="lr-tb" unicode-bidi="normal" text-decoration="none" transform="matrix(0.497561 0 0 0.496403 383.334 551)">channel</text><text fill="#000000" fill-opacity="1" font-family="Calibri,Calibri_MSFontService,sans-serif" font-style="normal" font-variant="normal" font-weight="400" font-stretch="normal" font-size="36" text-anchor="start" direction="ltr" writing-mode="lr-tb" unicode-bidi="normal" text-decoration="none" transform="matrix(0.497561 0 0 0.496403 243.021 322)">S</text><text fill="#000000" fill-opacity="1" font-family="Calibri,Calibri_MSFontService,sans-serif" font-style="normal" font-variant="normal" font-weight="400" font-stretch="normal" font-size="36" text-anchor="start" direction="ltr" writing-mode="lr-tb" unicode-bidi="normal" text-decoration="none" transform="matrix(0.497561 0 0 0.496403 417.878 290)">G</text><path d="M480.27 117.399 480.27 157.395" stroke="#000000" stroke-width="1.48921" stroke-linecap="butt" stroke-linejoin="miter" stroke-miterlimit="8" stroke-opacity="1" fill="none" fill-rule="evenodd" transform="matrix(1.00233 0 0 1 162.341 133.144)"/><path d="M491.935 155.374 480.022 169.273 468.108 155.374Z" stroke="#000000" stroke-width="0.992806" stroke-linecap="butt" stroke-linejoin="miter" stroke-miterlimit="8" stroke-opacity="1" fill="#000000" fill-rule="evenodd" fill-opacity="1" transform="matrix(1.00233 0 0 1 162.341 133.144)"/><path d="M412.263 116.903 481.192 116.903" stroke="#000000" stroke-width="1.48921" stroke-linecap="butt" stroke-linejoin="miter" stroke-miterlimit="8" stroke-opacity="1" fill="none" fill-rule="evenodd" transform="matrix(1.00233 0 0 1 162.341 133.144)"/><path d="M389.924 117.151C389.924 107.967 396.925 100.522 405.561 100.522 414.197 100.522 421.198 107.967 421.198 117.151 421.198 126.336 414.197 133.781 405.561 133.781 396.925 133.781 389.924 126.336 389.924 117.151Z" stroke="#000000" stroke-width="2.23381" stroke-linecap="butt" stroke-linejoin="miter" stroke-miterlimit="8" stroke-opacity="1" fill="#FFFFFF" fill-rule="evenodd" fill-opacity="1" transform="matrix(1.00233 0 0 1 162.341 133.144)"/><path d="M359.396 137.752 359.396 178.285 357.906 178.285 357.906 137.752ZM361.63 177.292 358.651 183.249 355.673 177.292Z" fill="#000000" fill-rule="nonzero" fill-opacity="1" transform="matrix(1.00233 0 0 1 162.341 133.144)"/><text fill="#000000" fill-opacity="1" font-family="Cambria Math,Cambria Math_MSFontService,sans-serif" font-style="normal" font-variant="normal" font-weight="400" font-stretch="normal" font-size="36" text-anchor="start" direction="ltr" writing-mode="lr-tb" unicode-bidi="normal" text-decoration="none" transform="matrix(0.497561 0 0 0.496403 591.721 234)">ğ‘‰</text><text fill="#000000" fill-opacity="1" font-family="Cambria Math,Cambria Math_MSFontService,sans-serif" font-style="normal" font-variant="normal" font-weight="400" font-stretch="normal" font-size="26" text-anchor="start" direction="ltr" writing-mode="lr-tb" unicode-bidi="normal" text-decoration="none" transform="matrix(0.497561 0 0 0.496403 600.538 238)">ğ·ğ‘†</text><text fill="#000000" fill-opacity="1" font-family="Calibri,Calibri_MSFontService,sans-serif" font-style="normal" font-variant="normal" font-weight="400" font-stretch="normal" font-size="36" text-anchor="start" direction="ltr" writing-mode="lr-tb" unicode-bidi="normal" text-decoration="none" transform="matrix(0.497561 0 0 0.496403 635.658 323)">D</text><text fill="#000000" fill-opacity="1" font-family="Cambria Math,Cambria Math_MSFontService,sans-serif" font-style="normal" font-variant="normal" font-weight="400" font-stretch="normal" font-size="36" text-anchor="start" direction="ltr" writing-mode="lr-tb" unicode-bidi="normal" text-decoration="none" transform="matrix(0.497561 0 0 0.496403 526.793 300)">ğ¼</text><text fill="#000000" fill-opacity="1" font-family="Cambria Math,Cambria Math_MSFontService,sans-serif" font-style="normal" font-variant="normal" font-weight="400" font-stretch="normal" font-size="26" text-anchor="start" direction="ltr" writing-mode="lr-tb" unicode-bidi="normal" text-decoration="none" transform="matrix(0.497561 0 0 0.496403 532.585 304)">ğ·</text><text fill="#000000" fill-opacity="1" font-family="Cambria Math,Cambria Math_MSFontService,sans-serif" font-style="normal" font-variant="normal" font-weight="400" font-stretch="normal" font-size="36" text-anchor="start" direction="ltr" writing-mode="lr-tb" unicode-bidi="normal" text-decoration="none" transform="matrix(0.497561 0 0 0.496403 547.949 300)">â‰ </text><text fill="#000000" fill-opacity="1" font-family="Cambria Math,Cambria Math_MSFontService,sans-serif" font-style="normal" font-variant="normal" font-weight="400" font-stretch="normal" font-size="36" text-anchor="start" direction="ltr" writing-mode="lr-tb" unicode-bidi="normal" text-decoration="none" transform="matrix(0.497561 0 0 0.496403 566.358 300)">0</text><path d="M607.845 263.838 676.776 263.838" stroke="#000000" stroke-width="1.48921" stroke-linecap="butt" stroke-linejoin="miter" stroke-miterlimit="8" stroke-opacity="1" fill="none" fill-rule="evenodd" transform="matrix(1.00233 0 0 1 162.341 133.144)"/><path d="M607.845 263.342 607.845 303.337" stroke="#000000" stroke-width="1.48921" stroke-linecap="butt" stroke-linejoin="miter" stroke-miterlimit="8" stroke-opacity="1" fill="none" fill-rule="evenodd" transform="matrix(1.00233 0 0 1 162.341 133.144)"/><path d="M619.511 301.813 607.597 315.712 595.683 301.813Z" stroke="#000000" stroke-width="0.992806" stroke-linecap="butt" stroke-linejoin="miter" stroke-miterlimit="8" stroke-opacity="1" fill="#000000" fill-rule="evenodd" fill-opacity="1" transform="matrix(1.00233 0 0 1 162.341 133.144)"/><path d="M675.977 218.169 675.977 261.059 673.743 261.059 673.743 218.169ZM679.734 254.921 674.86 263.276 669.985 254.921C669.677 254.388 669.856 253.704 670.387 253.393 670.918 253.083 671.603 253.262 671.916 253.795L675.823 260.497 673.897 260.497 677.803 253.795C678.116 253.262 678.801 253.083 679.332 253.393 679.863 253.704 680.042 254.388 679.734 254.921Z" fill="#000000" fill-rule="nonzero" fill-opacity="1" transform="matrix(1.00233 0 0 1 162.341 133.144)"/><path d="M661.457 217.176 730.387 217.176" stroke="#000000" stroke-width="1.48921" stroke-linecap="butt" stroke-linejoin="miter" stroke-miterlimit="8" stroke-opacity="1" fill="none" fill-rule="evenodd" transform="matrix(1.00233 0 0 1 162.341 133.144)"/><path d="M711.594 217.176 711.594 262.278" stroke="#000000" stroke-width="2.23381" stroke-linecap="butt" stroke-linejoin="miter" stroke-miterlimit="8" stroke-opacity="1" fill="none" fill-rule="evenodd" transform="matrix(1.00233 0 0 1 162.341 133.144)"/><path d="M693.723 176.968 693.723 212.678" stroke="#000000" stroke-width="1.48921" stroke-linecap="butt" stroke-linejoin="miter" stroke-miterlimit="8" stroke-opacity="1" fill="none" fill-rule="evenodd" transform="matrix(1.00233 0 0 1 162.341 133.144)"/><path d="M606.853 177.96 693.827 177.96" stroke="#000000" stroke-width="1.48921" stroke-linecap="butt" stroke-linejoin="miter" stroke-miterlimit="8" stroke-opacity="1" fill="none" fill-rule="evenodd" transform="matrix(1.00233 0 0 1 162.341 133.144)"/><path d="M606.853 176.968 606.853 194.808" stroke="#000000" stroke-width="1.48921" stroke-linecap="butt" stroke-linejoin="miter" stroke-miterlimit="8" stroke-opacity="1" fill="none" fill-rule="evenodd" transform="matrix(1.00233 0 0 1 162.341 133.144)"/><path d="M618.518 193.101 606.604 206.504 594.691 193.101Z" stroke="#000000" stroke-width="0.992806" stroke-linecap="butt" stroke-linejoin="miter" stroke-miterlimit="8" stroke-opacity="1" fill="#000000" fill-rule="evenodd" fill-opacity="1" transform="matrix(1.00233 0 0 1 162.341 133.144)"/><path d="M711.594 262.349 780.524 262.349" stroke="#000000" stroke-width="1.48921" stroke-linecap="butt" stroke-linejoin="miter" stroke-miterlimit="8" stroke-opacity="1" fill="none" fill-rule="evenodd" transform="matrix(1.00233 0 0 1 162.341 133.144)"/><path d="M869.946 263.838 869.946 303.834" stroke="#000000" stroke-width="1.48921" stroke-linecap="butt" stroke-linejoin="miter" stroke-miterlimit="8" stroke-opacity="1" fill="none" fill-rule="evenodd" transform="matrix(1.00233 0 0 1 162.341 133.144)"/><path d="M881.612 301.813 869.698 315.216 857.784 301.813Z" stroke="#000000" stroke-width="0.992806" stroke-linecap="butt" stroke-linejoin="miter" stroke-miterlimit="8" stroke-opacity="1" fill="#000000" fill-rule="evenodd" fill-opacity="1" transform="matrix(1.00233 0 0 1 162.341 133.144)"/><path d="M801.939 262.845 870.869 262.845" stroke="#000000" stroke-width="1.48921" stroke-linecap="butt" stroke-linejoin="miter" stroke-miterlimit="8" stroke-opacity="1" fill="none" fill-rule="evenodd" transform="matrix(1.00233 0 0 1 162.341 133.144)"/><path d="M779.104 263.59C779.104 254.405 786.218 246.96 794.989 246.96 803.761 246.96 810.874 254.405 810.874 263.59 810.874 272.774 803.761 280.219 794.989 280.219 786.218 280.219 779.104 272.774 779.104 263.59Z" stroke="#000000" stroke-width="2.23381" stroke-linecap="butt" stroke-linejoin="miter" stroke-miterlimit="8" stroke-opacity="1" fill="#FFFFFF" fill-rule="evenodd" fill-opacity="1" transform="matrix(1.00233 0 0 1 162.341 133.144)"/><path d="M2.38612e-06-1.11691 34.3805-1.11683 34.3805 1.11698-2.38612e-06 1.11691ZM28.2418-4.87387 36.5971 7.83438e-05 28.2418 4.87399C27.709 5.18483 27.0251 5.00483 26.7143 4.47201 26.4034 3.93919 26.5834 3.25528 27.1163 2.94447L33.8177-0.964689 33.8177 0.964833 27.1163-2.94435C26.5834-3.25517 26.4035-3.93907 26.7143-4.4719 27.0251-5.00473 27.709-5.18468 28.2418-4.87387Z" fill="#000000" fill-rule="nonzero" fill-opacity="1" transform="matrix(-1.00233 0 0 1 931.178 395.493)"/><text fill="#000000" fill-opacity="1" font-family="Cambria Math,Cambria Math_MSFontService,sans-serif" font-style="normal" font-variant="normal" font-weight="400" font-stretch="normal" font-size="36" text-anchor="start" direction="ltr" writing-mode="lr-tb" unicode-bidi="normal" text-decoration="none" transform="matrix(0.497561 0 0 0.496403 944.532 371)">ğ‘‰</text><text fill="#000000" fill-opacity="1" font-family="Cambria Math,Cambria Math_MSFontService,sans-serif" font-style="normal" font-variant="normal" font-weight="400" font-stretch="normal" font-size="26" text-anchor="start" direction="ltr" writing-mode="lr-tb" unicode-bidi="normal" text-decoration="none" transform="matrix(0.497561 0 0 0.496403 953.349 375)">ğ·ğ‘†</text><text fill="#000000" fill-opacity="1" font-family="Cambria Math,Cambria Math_MSFontService,sans-serif" font-style="normal" font-variant="normal" font-weight="400" font-stretch="normal" font-size="36" text-anchor="start" direction="ltr" writing-mode="lr-tb" unicode-bidi="normal" text-decoration="none" transform="matrix(0.497561 0 0 0.496403 876.093 419)">ğ¼</text><text fill="#000000" fill-opacity="1" font-family="Cambria Math,Cambria Math_MSFontService,sans-serif" font-style="normal" font-variant="normal" font-weight="400" font-stretch="normal" font-size="26" text-anchor="start" direction="ltr" writing-mode="lr-tb" unicode-bidi="normal" text-decoration="none" transform="matrix(0.497561 0 0 0.496403 881.884 423)">ğ·</text><text fill="#000000" fill-opacity="1" font-family="Cambria Math,Cambria Math_MSFontService,sans-serif" font-style="normal" font-variant="normal" font-weight="400" font-stretch="normal" font-size="36" text-anchor="start" direction="ltr" writing-mode="lr-tb" unicode-bidi="normal" text-decoration="none" transform="matrix(0.497561 0 0 0.496403 897.249 419)">â‰ </text><text fill="#000000" fill-opacity="1" font-family="Cambria Math,Cambria Math_MSFontService,sans-serif" font-style="normal" font-variant="normal" font-weight="400" font-stretch="normal" font-size="36" text-anchor="start" direction="ltr" writing-mode="lr-tb" unicode-bidi="normal" text-decoration="none" transform="matrix(0.497561 0 0 0.496403 915.659 419)">0</text><path d="M669.896 212.709 714.145 212.709" stroke="#000000" stroke-width="1.48921" stroke-linecap="butt" stroke-linejoin="miter" stroke-miterlimit="8" stroke-opacity="1" fill="none" fill-rule="evenodd" transform="matrix(1.00233 0 0 1 162.341 133.144)"/><path d="M183.669 216.928 310.748 216.928 310.748 269.547 183.669 269.547Z" fill="url(#fill5)" fill-rule="nonzero" transform="matrix(1.00233 0 0 1 162.341 133.144)"/><path d="M197.817 69.9928C197.817 60.8084 204.817 53.3633 213.453 53.3633 222.089 53.3633 229.09 60.8084 229.09 69.9928 229.09 79.1773 222.089 86.6223 213.453 86.6223 204.817 86.6223 197.817 79.1773 197.817 69.9928Z" stroke="#000000" stroke-width="2.23381" stroke-linecap="butt" stroke-linejoin="miter" stroke-miterlimit="8" stroke-opacity="1" fill="#FFFFFF" fill-rule="evenodd" fill-opacity="1" transform="matrix(1.00233 0 0 1 162.341 133.144)"/><text fill="#000000" fill-opacity="1" font-family="Calibri,Calibri_MSFontService,sans-serif" font-style="normal" font-variant="normal" font-weight="400" font-stretch="normal" font-size="36" text-anchor="start" direction="ltr" writing-mode="lr-tb" unicode-bidi="normal" text-decoration="none" transform="matrix(0.497561 0 0 0.496403 366.701 208)">-</text><text fill="#000000" fill-opacity="1" font-family="Calibri,Calibri_MSFontService,sans-serif" font-style="normal" font-variant="normal" font-weight="400" font-stretch="normal" font-size="36" text-anchor="start" direction="ltr" writing-mode="lr-tb" unicode-bidi="normal" text-decoration="none" transform="matrix(0.497561 0 0 0.496403 376.279 208)">+</text><text fill="#000000" fill-opacity="1" font-family="Cambria Math,Cambria Math_MSFontService,sans-serif" font-style="normal" font-variant="normal" font-weight="400" font-stretch="normal" font-size="36" text-anchor="start" direction="ltr" writing-mode="lr-tb" unicode-bidi="normal" text-decoration="none" transform="matrix(0.497561 0 0 0.496403 363.227 174)">ğ‘‰</text><text fill="#000000" fill-opacity="1" font-family="Cambria Math,Cambria Math_MSFontService,sans-serif" font-style="normal" font-variant="normal" font-weight="400" font-stretch="normal" font-size="26" text-anchor="start" direction="ltr" writing-mode="lr-tb" unicode-bidi="normal" text-decoration="none" transform="matrix(0.497561 0 0 0.496403 372.044 178)">ğºğ‘†</text><text fill="#000000" fill-opacity="1" font-family="Cambria Math,Cambria Math_MSFontService,sans-serif" font-style="normal" font-variant="normal" font-weight="400" font-stretch="normal" font-size="36" text-anchor="start" direction="ltr" writing-mode="lr-tb" unicode-bidi="normal" text-decoration="none" transform="matrix(0.497561 0 0 0.496403 393.812 174)">&gt;</text><text fill="#000000" fill-opacity="1" font-family="Cambria Math,Cambria Math_MSFontService,sans-serif" font-style="normal" font-variant="normal" font-weight="400" font-stretch="normal" font-size="36" text-anchor="start" direction="ltr" writing-mode="lr-tb" unicode-bidi="normal" text-decoration="none" transform="matrix(0.497561 0 0 0.496403 412.222 174)">ğ‘‰</text><text fill="#000000" fill-opacity="1" font-family="Cambria Math,Cambria Math_MSFontService,sans-serif" font-style="normal" font-variant="normal" font-weight="400" font-stretch="normal" font-size="26" text-anchor="start" direction="ltr" writing-mode="lr-tb" unicode-bidi="normal" text-decoration="none" transform="matrix(0.497561 0 0 0.496403 421.676 178)">ğ‘‡ğ»</text><text fill="#000000" fill-opacity="1" font-family="Calibri,Calibri_MSFontService,sans-serif" font-style="normal" font-variant="normal" font-weight="400" font-stretch="normal" font-size="36" text-anchor="start" direction="ltr" writing-mode="lr-tb" unicode-bidi="normal" text-decoration="none" transform="matrix(0.497561 0 0 0.496403 559.655 256)">+ </text><text fill="#000000" fill-opacity="1" font-family="Calibri,Calibri_MSFontService,sans-serif" font-style="normal" font-variant="normal" font-weight="400" font-stretch="normal" font-size="36" text-anchor="start" direction="ltr" writing-mode="lr-tb" unicode-bidi="normal" text-decoration="none" transform="matrix(0.497561 0 0 0.496403 572.716 256)">-</text><path d="M204.022 257.385C204.022 251.765 208.466 247.209 213.95 247.209 219.433 247.209 223.878 251.765 223.878 257.385 223.878 263.005 219.433 267.561 213.95 267.561 208.466 267.561 204.022 263.005 204.022 257.385Z" stroke="#2F528F" stroke-width="0.992806" stroke-linecap="butt" stroke-linejoin="miter" stroke-miterlimit="8" stroke-opacity="1" fill="#4472C4" fill-rule="evenodd" fill-opacity="1" transform="matrix(1.00233 0 0 1 162.341 133.144)"/><text fill="#FFFFFF" fill-opacity="1" font-family="Calibri,Calibri_MSFontService,sans-serif" font-style="normal" font-variant="normal" font-weight="400" font-stretch="normal" font-size="36" text-anchor="start" direction="ltr" writing-mode="lr-tb" unicode-bidi="normal" text-decoration="none" transform="matrix(0.497561 0 0 0.496403 374.039 397)">-</text><path d="M239.266 257.385C239.266 251.765 243.822 247.209 249.442 247.209 255.063 247.209 259.619 251.765 259.619 257.385 259.619 263.005 255.063 267.561 249.442 267.561 243.822 267.561 239.266 263.005 239.266 257.385Z" stroke="#2F528F" stroke-width="0.992806" stroke-linecap="butt" stroke-linejoin="miter" stroke-miterlimit="8" stroke-opacity="1" fill="#4472C4" fill-rule="evenodd" fill-opacity="1" transform="matrix(1.00233 0 0 1 162.341 133.144)"/><text fill="#FFFFFF" fill-opacity="1" font-family="Calibri,Calibri_MSFontService,sans-serif" font-style="normal" font-variant="normal" font-weight="400" font-stretch="normal" font-size="36" text-anchor="start" direction="ltr" writing-mode="lr-tb" unicode-bidi="normal" text-decoration="none" transform="matrix(0.497561 0 0 0.496403 409.603 397)">-</text><path d="M204.022 233.558C204.022 227.937 208.578 223.381 214.198 223.381 219.818 223.381 224.374 227.937 224.374 233.558 224.374 239.178 219.818 243.734 214.198 243.734 208.578 243.734 204.022 239.178 204.022 233.558Z" stroke="#2F528F" stroke-width="0.992806" stroke-linecap="butt" stroke-linejoin="miter" stroke-miterlimit="8" stroke-opacity="1" fill="#4472C4" fill-rule="evenodd" fill-opacity="1" transform="matrix(1.00233 0 0 1 162.341 133.144)"/><text fill="#FFFFFF" fill-opacity="1" font-family="Calibri,Calibri_MSFontService,sans-serif" font-style="normal" font-variant="normal" font-weight="400" font-stretch="normal" font-size="36" text-anchor="start" direction="ltr" writing-mode="lr-tb" unicode-bidi="normal" text-decoration="none" transform="matrix(0.497561 0 0 0.496403 374.233 373)">-</text><path d="M273.518 256.144C273.518 250.661 278.074 246.216 283.694 246.216 289.315 246.216 293.871 250.661 293.871 256.144 293.871 261.627 289.315 266.072 283.694 266.072 278.074 266.072 273.518 261.627 273.518 256.144Z" stroke="#2F528F" stroke-width="0.992806" stroke-linecap="butt" stroke-linejoin="miter" stroke-miterlimit="8" stroke-opacity="1" fill="#4472C4" fill-rule="evenodd" fill-opacity="1" transform="matrix(1.00233 0 0 1 162.341 133.144)"/><text fill="#FFFFFF" fill-opacity="1" font-family="Calibri,Calibri_MSFontService,sans-serif" font-style="normal" font-variant="normal" font-weight="400" font-stretch="normal" font-size="36" text-anchor="start" direction="ltr" writing-mode="lr-tb" unicode-bidi="normal" text-decoration="none" transform="matrix(0.497561 0 0 0.496403 444.081 395)">-</text><path d="M239.266 233.558C239.266 227.937 243.711 223.381 249.194 223.381 254.678 223.381 259.122 227.937 259.122 233.558 259.122 239.178 254.678 243.734 249.194 243.734 243.711 243.734 239.266 239.178 239.266 233.558Z" stroke="#2F528F" stroke-width="0.992806" stroke-linecap="butt" stroke-linejoin="miter" stroke-miterlimit="8" stroke-opacity="1" fill="#4472C4" fill-rule="evenodd" fill-opacity="1" transform="matrix(1.00233 0 0 1 162.341 133.144)"/><text fill="#FFFFFF" fill-opacity="1" font-family="Calibri,Calibri_MSFontService,sans-serif" font-style="normal" font-variant="normal" font-weight="400" font-stretch="normal" font-size="36" text-anchor="start" direction="ltr" writing-mode="lr-tb" unicode-bidi="normal" text-decoration="none" transform="matrix(0.497561 0 0 0.496403 409.351 373)">-</text><path d="M274.511 233.309C274.511 227.826 278.956 223.381 284.439 223.381 289.922 223.381 294.367 227.826 294.367 233.309 294.367 238.793 289.922 243.237 284.439 243.237 278.956 243.237 274.511 238.793 274.511 233.309Z" stroke="#2F528F" stroke-width="0.992806" stroke-linecap="butt" stroke-linejoin="miter" stroke-miterlimit="8" stroke-opacity="1" fill="#4472C4" fill-rule="evenodd" fill-opacity="1" transform="matrix(1.00233 0 0 1 162.341 133.144)"/><text fill="#FFFFFF" fill-opacity="1" font-family="Calibri,Calibri_MSFontService,sans-serif" font-style="normal" font-variant="normal" font-weight="400" font-stretch="normal" font-size="36" text-anchor="start" direction="ltr" writing-mode="lr-tb" unicode-bidi="normal" text-decoration="none" transform="matrix(0.497561 0 0 0.496403 444.721 372)">-</text><text fill="#000000" fill-opacity="1" font-family="Calibri,Calibri_MSFontService,sans-serif" font-style="normal" font-variant="normal" font-weight="400" font-stretch="normal" font-size="36" text-anchor="start" direction="ltr" writing-mode="lr-tb" unicode-bidi="normal" text-decoration="none" transform="matrix(0.497561 0 0 0.496403 950.125 402)">+ </text><text fill="#000000" fill-opacity="1" font-family="Calibri,Calibri_MSFontService,sans-serif" font-style="normal" font-variant="normal" font-weight="400" font-stretch="normal" font-size="36" text-anchor="start" direction="ltr" writing-mode="lr-tb" unicode-bidi="normal" text-decoration="none" transform="matrix(0.497561 0 0 0.496403 963.186 402)">-</text><path d="M634.155 176.719C634.155 167.535 641.268 160.09 650.04 160.09 658.811 160.09 665.924 167.535 665.924 176.719 665.924 185.904 658.811 193.349 650.04 193.349 641.268 193.349 634.155 185.904 634.155 176.719Z" stroke="#000000" stroke-width="2.23381" stroke-linecap="butt" stroke-linejoin="miter" stroke-miterlimit="8" stroke-opacity="1" fill="#FFFFFF" fill-rule="evenodd" fill-opacity="1" transform="matrix(1.00233 0 0 1 162.341 133.144)"/><text fill="#000000" fill-opacity="1" font-family="Cambria Math,Cambria Math_MSFontService,sans-serif" font-style="normal" font-variant="normal" font-weight="400" font-stretch="normal" font-size="36" text-anchor="start" direction="ltr" writing-mode="lr-tb" unicode-bidi="normal" text-decoration="none" transform="matrix(0.497561 0 0 0.496403 801.543 285)">ğ‘‰</text><text fill="#000000" fill-opacity="1" font-family="Cambria Math,Cambria Math_MSFontService,sans-serif" font-style="normal" font-variant="normal" font-weight="400" font-stretch="normal" font-size="26" text-anchor="start" direction="ltr" writing-mode="lr-tb" unicode-bidi="normal" text-decoration="none" transform="matrix(0.497561 0 0 0.496403 810.36 288)">ğº</text><text fill="#000000" fill-opacity="1" font-family="Cambria Math,Cambria Math_MSFontService,sans-serif" font-style="normal" font-variant="normal" font-weight="400" font-stretch="normal" font-size="26" text-anchor="start" direction="ltr" writing-mode="lr-tb" unicode-bidi="normal" text-decoration="none" transform="matrix(0.497561 0 0 0.496403 818.943 288)">ğ‘†</text><text fill="#000000" fill-opacity="1" font-family="Calibri,Calibri_MSFontService,sans-serif" font-style="normal" font-variant="normal" font-weight="400" font-stretch="normal" font-size="36" text-anchor="start" direction="ltr" writing-mode="lr-tb" unicode-bidi="normal" text-decoration="none" transform="matrix(0.497561 0 0 0.496403 804.668 315)">-</text><text fill="#000000" fill-opacity="1" font-family="Calibri,Calibri_MSFontService,sans-serif" font-style="normal" font-variant="normal" font-weight="400" font-stretch="normal" font-size="36" text-anchor="start" direction="ltr" writing-mode="lr-tb" unicode-bidi="normal" text-decoration="none" transform="matrix(0.497561 0 0 0.496403 814.246 315)">+</text></g></g></g></g></g></svg>