<svg width="725" height="517" xmlns="http://www.w3.org/2000/svg" xmlns:xlink="http://www.w3.org/1999/xlink" xml:space="preserve" overflow="hidden"><defs><clipPath id="clip0"><rect x="277" y="101" width="725" height="517"/></clipPath><clipPath id="clip1"><rect x="278" y="102" width="724" height="516"/></clipPath><clipPath id="clip2"><rect x="278" y="102" width="724" height="516"/></clipPath><clipPath id="clip3"><rect x="278" y="102" width="724" height="516"/></clipPath><clipPath id="clip4"><rect x="278" y="102" width="724" height="516"/></clipPath></defs><g clip-path="url(#clip0)" transform="translate(-277 -101)"><g clip-path="url(#clip1)"><g clip-path="url(#clip2)"><g clip-path="url(#clip3)"><g clip-path="url(#clip4)"><path d="M280 233 1000 233 1000 476 280 476Z" stroke="#AE5A21" stroke-width="2" stroke-linecap="butt" stroke-linejoin="miter" stroke-miterlimit="8" stroke-opacity="1" fill="#ED7D31" fill-rule="nonzero" fill-opacity="1"/><text fill="#FFFFFF" fill-opacity="1" font-family="Calibri,Calibri_MSFontService,sans-serif" font-style="normal" font-variant="normal" font-weight="400" font-stretch="normal" font-size="36" text-anchor="start" direction="ltr" writing-mode="lr-tb" unicode-bidi="normal" text-decoration="none" transform="translate(630.536 432)">p</text><path d="M385 233 505 233 505 338 385 338Z" stroke="#2F528F" stroke-width="2" stroke-linecap="butt" stroke-linejoin="miter" stroke-miterlimit="8" stroke-opacity="1" fill="#4472C4" fill-rule="nonzero" fill-opacity="1"/><text fill="#FFFFFF" fill-opacity="1" font-family="Calibri,Calibri_MSFontService,sans-serif" font-style="normal" font-variant="normal" font-weight="400" font-stretch="normal" font-size="36" text-anchor="start" direction="ltr" writing-mode="lr-tb" unicode-bidi="normal" text-decoration="none" transform="translate(426.108 298)">n+</text><path d="M762 233 882 233 882 338 762 338Z" stroke="#2F528F" stroke-width="2" stroke-linecap="butt" stroke-linejoin="miter" stroke-miterlimit="8" stroke-opacity="1" fill="#4472C4" fill-rule="nonzero" fill-opacity="1"/><text fill="#FFFFFF" fill-opacity="1" font-family="Calibri,Calibri_MSFontService,sans-serif" font-style="normal" font-variant="normal" font-weight="400" font-stretch="normal" font-size="36" text-anchor="start" direction="ltr" writing-mode="lr-tb" unicode-bidi="normal" text-decoration="none" transform="translate(803.251 298)">n+</text><path d="M505 185 762 185 762 233 505 233Z" stroke="#787878" stroke-width="2" stroke-linecap="butt" stroke-linejoin="miter" stroke-miterlimit="8" stroke-opacity="1" fill="#A5A5A5" fill-rule="nonzero" fill-opacity="1"/><path d="M505 137 762 137 762 185 505 185Z" stroke="#507E32" stroke-width="2" stroke-linecap="butt" stroke-linejoin="miter" stroke-miterlimit="8" stroke-opacity="1" fill="#70AD47" fill-rule="nonzero" fill-opacity="1"/><path d="M1.5-2.46063e-06 1.50016 96-1.49984 96-1.5 2.46063e-06ZM6.00016 96C6.00016 99.3137 3.31388 102 0.000167323 102-3.31354 102-5.99984 99.3137-5.99984 96-5.99985 92.6863-3.31356 90 0.000147638 90 3.31386 90 6.00015 92.6863 6.00016 96Z" fill="#000000" fill-rule="nonzero" fill-opacity="1" transform="matrix(1 0 0 -1 445.5 233.5)"/><text fill="#000000" fill-opacity="1" font-family="Calibri,Calibri_MSFontService,sans-serif" font-style="normal" font-variant="normal" font-weight="400" font-stretch="normal" font-size="36" text-anchor="start" direction="ltr" writing-mode="lr-tb" unicode-bidi="normal" text-decoration="none" transform="translate(647.579 585)">B</text><text fill="#000000" fill-opacity="1" font-family="Calibri,Calibri_MSFontService,sans-serif" font-style="normal" font-variant="normal" font-weight="400" font-stretch="normal" font-size="36" text-anchor="start" direction="ltr" writing-mode="lr-tb" unicode-bidi="normal" text-decoration="none" transform="translate(416.882 148)">S</text><path d="M1.5-2.46063e-06 1.50016 96-1.49984 96-1.5 2.46063e-06ZM-6 9.84251e-06C-6.00001-3.3137-3.31372-5.99999-9.84251e-06-6 3.3137-6.00001 5.99999-3.31372 6-9.84251e-06 6.00001 3.3137 3.31372 5.99999 9.84251e-06 6-3.3137 6.00001-5.99999 3.31372-6 9.84251e-06Z" fill="#000000" fill-rule="nonzero" fill-opacity="1" transform="matrix(1 0 0 -1 637.5 572.5)"/></g></g></g></g></g></svg>