<svg width="529" height="624" xmlns="http://www.w3.org/2000/svg" xmlns:xlink="http://www.w3.org/1999/xlink" xml:space="preserve" overflow="hidden"><defs><clipPath id="clip0"><rect x="416" y="96" width="529" height="624"/></clipPath></defs><g clip-path="url(#clip0)" transform="translate(-416 -96)"><path d="M192.413 334.998 573.405 334.998 573.405 521.278 192.413 521.278Z" stroke="#AE5A21" stroke-width="1.53317" stroke-linecap="butt" stroke-linejoin="miter" stroke-miterlimit="8" stroke-opacity="1" fill="#ED7D31" fill-rule="nonzero" fill-opacity="1" transform="matrix(1.00011 0 0 1 228.933 13.2088)"/><path d="M192.413 334.998 284.403 334.998 284.403 415.489 192.413 415.489Z" stroke="#2F528F" stroke-width="1.53317" stroke-linecap="butt" stroke-linejoin="miter" stroke-miterlimit="8" stroke-opacity="1" fill="#4472C4" fill-rule="nonzero" fill-opacity="1" transform="matrix(1.00011 0 0 1 228.933 13.2088)"/><text fill="#FFFFFF" fill-opacity="1" font-family="Calibri,Calibri_MSFontService,sans-serif" font-style="normal" font-variant="normal" font-weight="400" font-stretch="normal" font-size="36" text-anchor="start" direction="ltr" writing-mode="lr-tb" unicode-bidi="normal" text-decoration="none" transform="matrix(0.766667 0 0 0.766585 452.883 398)">n+</text><path d="M481.415 334.998 573.405 334.998 573.405 415.489 481.415 415.489Z" stroke="#2F528F" stroke-width="1.53317" stroke-linecap="butt" stroke-linejoin="miter" stroke-miterlimit="8" stroke-opacity="1" fill="#4472C4" fill-rule="nonzero" fill-opacity="1" transform="matrix(1.00011 0 0 1 228.933 13.2088)"/><text fill="#FFFFFF" fill-opacity="1" font-family="Calibri,Calibri_MSFontService,sans-serif" font-style="normal" font-variant="normal" font-weight="400" font-stretch="normal" font-size="36" text-anchor="start" direction="ltr" writing-mode="lr-tb" unicode-bidi="normal" text-decoration="none" transform="matrix(0.766667 0 0 0.766585 742.026 398)">n+</text><path d="M284.403 298.201 481.415 298.201 481.415 334.998 284.403 334.998Z" stroke="#787878" stroke-width="1.53317" stroke-linecap="butt" stroke-linejoin="miter" stroke-miterlimit="8" stroke-opacity="1" fill="#A5A5A5" fill-rule="nonzero" fill-opacity="1" transform="matrix(1.00011 0 0 1 228.933 13.2088)"/><text fill="#FFFFFF" fill-opacity="1" font-family="Calibri,Calibri_MSFontService,sans-serif" font-style="normal" font-variant="normal" font-weight="400" font-stretch="normal" font-size="36" text-anchor="start" direction="ltr" writing-mode="lr-tb" unicode-bidi="normal" text-decoration="none" transform="matrix(0.766667 0 0 0.766585 568.685 339)">Si oxide</text><path d="M284.403 261.405 481.415 261.405 481.415 298.201 284.403 298.201Z" stroke="#507E32" stroke-width="1.53317" stroke-linecap="butt" stroke-linejoin="miter" stroke-miterlimit="8" stroke-opacity="1" fill="#70AD47" fill-rule="nonzero" fill-opacity="1" transform="matrix(1.00011 0 0 1 228.933 13.2088)"/><text fill="#FFFFFF" fill-opacity="1" font-family="Calibri,Calibri_MSFontService,sans-serif" font-style="normal" font-variant="normal" font-weight="400" font-stretch="normal" font-size="36" text-anchor="start" direction="ltr" writing-mode="lr-tb" unicode-bidi="normal" text-decoration="none" transform="matrix(0.766667 0 0 0.766585 575.029 302)">poly Si</text><text fill="#000000" fill-opacity="1" font-family="Calibri,Calibri_MSFontService,sans-serif" font-style="normal" font-variant="normal" font-weight="400" font-stretch="normal" font-size="36" text-anchor="start" direction="ltr" writing-mode="lr-tb" unicode-bidi="normal" text-decoration="none" transform="matrix(0.766667 0 0 0.766585 585.138 695)">Bulk</text><text fill="#000000" fill-opacity="1" font-family="Calibri,Calibri_MSFontService,sans-serif" font-style="normal" font-variant="normal" font-weight="400" font-stretch="normal" font-size="36" text-anchor="start" direction="ltr" writing-mode="lr-tb" unicode-bidi="normal" text-decoration="none" transform="matrix(0.766667 0 0 0.766585 445.877 173)">Sourc</text><text fill="#000000" fill-opacity="1" font-family="Calibri,Calibri_MSFontService,sans-serif" font-style="normal" font-variant="normal" font-weight="400" font-stretch="normal" font-size="36" text-anchor="start" direction="ltr" writing-mode="lr-tb" unicode-bidi="normal" text-decoration="none" transform="matrix(0.766667 0 0 0.766585 508.529 173)">e</text><text fill="#000000" fill-opacity="1" font-family="Calibri,Calibri_MSFontService,sans-serif" font-style="normal" font-variant="normal" font-weight="400" font-stretch="normal" font-size="36" text-anchor="start" direction="ltr" writing-mode="lr-tb" unicode-bidi="normal" text-decoration="none" transform="matrix(0.766667 0 0 0.766585 622.677 255)">G</text><text fill="#000000" fill-opacity="1" font-family="Calibri,Calibri_MSFontService,sans-serif" font-style="normal" font-variant="normal" font-weight="400" font-stretch="normal" font-size="36" text-anchor="start" direction="ltr" writing-mode="lr-tb" unicode-bidi="normal" text-decoration="none" transform="matrix(0.766667 0 0 0.766585 773.655 161)">Drain</text><path d="M574.673 333.753 697.592 261.405 697.592 338.83 573.405 416.256 574.673 333.753Z" stroke="#2F528F" stroke-width="1.53317" stroke-linecap="butt" stroke-linejoin="miter" stroke-miterlimit="8" stroke-opacity="1" fill="#4472C4" fill-rule="evenodd" fill-opacity="1" transform="matrix(1.00011 0 0 1 228.933 13.2088)"/><path d="M483.715 332.469 607.738 262.939 697.592 262.939 573.569 334.998 483.715 332.469Z" stroke="#2F528F" stroke-width="1.53317" stroke-linecap="butt" stroke-linejoin="miter" stroke-miterlimit="8" stroke-opacity="1" fill="#4472C4" fill-rule="evenodd" fill-opacity="1" transform="matrix(1.00011 0 0 1 228.933 13.2088)"/><path d="M483.715 298.143 607.902 233.808 607.902 264.084 483.715 333.464 483.715 298.143Z" stroke="#787878" stroke-width="1.53317" stroke-linecap="butt" stroke-linejoin="miter" stroke-miterlimit="8" stroke-opacity="1" fill="#A5A5A5" fill-rule="evenodd" fill-opacity="1" transform="matrix(1.00011 0 0 1 228.933 13.2088)"/><path d="M482.182 260.271 607.902 200.845 607.902 233.719 483.451 298.201 482.182 260.271Z" stroke="#507E32" stroke-width="1.53317" stroke-linecap="butt" stroke-linejoin="miter" stroke-miterlimit="8" stroke-opacity="1" fill="#70AD47" fill-rule="evenodd" fill-opacity="1" transform="matrix(1.00011 0 0 1 228.933 13.2088)"/><path d="M282.87 261.645 411.137 207.314 608.668 200.845 479.119 262.939 282.87 261.645Z" stroke="#507E32" stroke-width="1.53317" stroke-linecap="butt" stroke-linejoin="miter" stroke-miterlimit="8" stroke-opacity="1" fill="#70AD47" fill-rule="evenodd" fill-opacity="1" transform="matrix(1.00011 0 0 1 228.933 13.2088)"/><path d="M191.646 330.937 284.403 286.703 284.403 333.464 191.646 330.937Z" stroke="#2F528F" stroke-width="1.53317" stroke-linecap="butt" stroke-linejoin="miter" stroke-miterlimit="8" stroke-opacity="1" fill="#4472C4" fill-rule="evenodd" fill-opacity="1" transform="matrix(1.00011 0 0 1 228.933 13.2088)"/><path d="M574.675 419.031 699.125 340.364 697.856 443.139 573.405 524.344 574.675 419.031Z" stroke="#2F528F" stroke-width="1.53317" stroke-linecap="butt" stroke-linejoin="miter" stroke-miterlimit="8" stroke-opacity="1" fill="#ED7D31" fill-rule="evenodd" fill-opacity="1" transform="matrix(1.00011 0 0 1 228.933 13.2088)"/><path d="M0 0 0.000120722 104.798" stroke="#000000" stroke-width="2.29975" stroke-linecap="butt" stroke-linejoin="miter" stroke-miterlimit="8" stroke-opacity="1" fill="none" fill-rule="evenodd" transform="matrix(1.00011 0 0 -1 670.15 247.176)"/><path d="M0 0 0.000120722 153.755" stroke="#000000" stroke-width="2.29975" stroke-linecap="butt" stroke-linejoin="miter" stroke-miterlimit="8" stroke-opacity="1" fill="none" fill-rule="evenodd" transform="matrix(1.00011 0 0 -1 802.783 323.73)"/><path d="M0 0 0.000120722 153.755" stroke="#000000" stroke-width="2.29975" stroke-linecap="butt" stroke-linejoin="miter" stroke-miterlimit="8" stroke-opacity="1" fill="none" fill-rule="evenodd" transform="matrix(1.00011 0 0 -1 487.683 334.462)"/><text fill="#000000" fill-opacity="1" font-family="Calibri,Calibri_MSFontService,sans-serif" font-style="normal" font-variant="normal" font-weight="400" font-stretch="normal" font-size="36" text-anchor="start" direction="ltr" writing-mode="lr-tb" unicode-bidi="normal" text-decoration="none" transform="matrix(0.766667 0 0 0.766585 641.309 131)">Gat</text><text fill="#000000" fill-opacity="1" font-family="Calibri,Calibri_MSFontService,sans-serif" font-style="normal" font-variant="normal" font-weight="400" font-stretch="normal" font-size="36" text-anchor="start" direction="ltr" writing-mode="lr-tb" unicode-bidi="normal" text-decoration="none" transform="matrix(0.766667 0 0 0.766585 680.623 131)">e</text><path d="M288.201 401.115 474.482 401.115 474.482 404.565 288.201 404.565ZM297.681 410.367 284.779 402.84 297.681 395.314C298.504 394.833 299.56 395.112 300.04 395.934 300.52 396.757 300.242 397.813 299.42 398.294L289.071 404.33 289.071 401.351 299.42 407.388C300.242 407.868 300.52 408.923 300.04 409.746 299.56 410.569 298.504 410.847 297.681 410.367ZM465.003 395.314 477.906 402.84 465.003 410.367C464.18 410.847 463.124 410.569 462.644 409.746 462.164 408.923 462.441 407.868 463.265 407.388L473.614 401.351 473.614 404.331 463.265 398.294C462.441 397.814 462.164 396.757 462.644 395.934 463.124 395.112 464.18 394.834 465.003 395.314Z" fill="#000000" fill-rule="nonzero" fill-opacity="1" transform="matrix(1.00011 0 0 1 228.933 13.2088)"/><path d="M3.80632 0.385884 122.693 76.377 120.836 79.2833 1.94847 3.29248ZM6.81144 13.2867-0.00673544-0.00430544 14.9187 0.602894C15.8705 0.641615 16.6107 1.44459 16.572 2.3964 16.5332 3.3482 15.7302 4.0884 14.7785 4.04968L2.80743 3.56266 4.4122 1.05201 9.88074 11.7121C10.3155 12.5597 9.98093 13.5993 9.1334 14.034 8.28578 14.4688 7.24623 14.1342 6.81144 13.2867ZM117.831 66.3831 124.65 79.6742 109.724 79.0671C108.772 79.028 108.032 78.2254 108.071 77.2733 108.109 76.3216 108.913 75.5814 109.864 75.6201L121.836 76.1071 120.23 78.6179 114.762 67.9577C114.327 67.11 114.662 66.0705 115.509 65.6357 116.357 65.2009 117.396 65.5355 117.831 66.3831Z" fill="#000000" fill-rule="nonzero" fill-opacity="1" transform="matrix(1.00011 0 0 -1 802.783 478.854)"/><text fill="#000000" fill-opacity="1" font-family="Calibri,Calibri_MSFontService,sans-serif" font-style="normal" font-variant="normal" font-weight="400" font-stretch="normal" font-size="36" text-anchor="start" direction="ltr" writing-mode="lr-tb" unicode-bidi="normal" text-decoration="none" transform="matrix(0.766667 0 0 0.766585 603.621 456)">L</text><text fill="#000000" fill-opacity="1" font-family="Calibri,Calibri_MSFontService,sans-serif" font-style="normal" font-variant="normal" font-weight="400" font-stretch="normal" font-size="36" text-anchor="start" direction="ltr" writing-mode="lr-tb" unicode-bidi="normal" text-decoration="none" transform="matrix(0.766667 0 0 0.766585 858.184 472)">W</text><path d="M192.029 583.754 575.593 583.754" stroke="#000000" stroke-width="3.44963" stroke-linecap="butt" stroke-linejoin="miter" stroke-miterlimit="8" stroke-opacity="1" fill="none" fill-rule="evenodd" transform="matrix(1.00011 0 0 1 228.933 13.2088)"/><path d="M381.376 649.914 381.376 583.754" stroke="#000000" stroke-width="2.29975" stroke-linecap="butt" stroke-linejoin="miter" stroke-miterlimit="8" stroke-opacity="1" fill="none" fill-rule="evenodd" transform="matrix(1.00011 0 0 1 228.933 13.2088)"/></g></svg>